
        <svg xmlns="http://www.w3.org/2000/svg" xmlns:xlink="http://www.w3.org/1999/xlink" version="1.1" width="3171.4285714285716" 
        height="2275.4548395819484" viewBox="0 0 3171.4285714285716 2275.4548395819484">
			
			<g transform="scale(8.571428571428571) translate(10, 10)">
				<defs id="SvgjsDefs1015"></defs><g id="SvgjsG1016" featureKey="symbolGroupContainer" transform="matrix(1.6132886247922338,0,0,1.6132886247922338,91.00001005828307,0.000010058283072208439)" fill="#fefefe"><path xmlns="http://www.w3.org/2000/svg" d="M52.3 104.6a52.3 52.3 0 1 1 52.3-52.3 52.4 52.4 0 0 1-52.3 52.3zm0-102.3a50 50 0 1 0 50 50 50 50 0 0 0-50-50z"></path></g><g id="SvgjsG1017" featureKey="monogramFeature-0" transform="matrix(1.435179875158666,0,0,1.435179875158666,121.13889221177422,29.027867982328512)" fill="#fefefe"><path d="M2.28 47.22 c-1.14 -2.58 -1.68 -5.4 -1.68 -8.34 c0 -11.88 9.96 -21.48 21.18 -21.48 c6.96 0 12.72 3.42 15.78 7.44 l-0.18 0.24 c-3.36 -4.62 -9.18 -6.66 -14.46 -6.66 c-2.52 0 -4.86 0.42 -6.96 1.32 c-4.56 1.92 -7.8 5.28 -9.54 9.48 s-1.44 7.14 -1.44 7.62 c0 2.22 0.36 4.56 1.02 6.96 c2.7 9.42 9.36 15.24 17.82 15.24 c7.5 0 12.48 -4.26 15.54 -11.04 l0.24 0.06 c-3.06 6.72 -8.4 12.24 -18.36 12.24 c-8.4 0 -15.66 -5.4 -18.96 -13.08 z M37.777499999999996 59.94 l-7.44 0 c2.4 -0.48 3.54 -2.28 3.54 -3.42 l0 -38.52 l3.66 0 c1.74 3.18 3.48 6.36 5.22 9.6 c3 5.58 6.78 12.6 10.02 18.42 c3.42 -6 7.2 -12.96 10.2 -18.54 c1.74 -3.24 3.48 -6.42 5.16 -9.48 l3.78 0 l0 38.28 c0 2.22 1.62 3.36 3.72 3.66 l-12 0 c1.44 -0.18 3.72 -1.32 3.9 -3.66 l0 -36.48 c-1.62 2.94 -3.3 5.94 -4.98 9 c-2.88 5.28 -6.54 11.88 -9.6 17.46 c0.66 1.14 1.2 2.22 1.74 3.18 c1.2 2.22 1.98 4.68 1.98 6.12 c0 0.54 0.06 1.62 -0.9 2.82 c-0.9 1.14 -2.34 1.68 -3.72 1.68 c-1.86 0 -3.54 -0.96 -3.78 -2.94 c-0.06 -0.24 -0.06 -0.48 -0.06 -0.72 c0 -0.72 0.18 -1.8 0.66 -3 s1.14 -2.34 1.68 -3.3 l-16.38 -29.94 l0 36.36 c0.18 1.86 1.92 3.18 3.6 3.42 z M49.0575 53.88 c-0.36 0.78 -0.54 1.56 -0.54 2.34 c0 0.24 0.06 0.42 0.06 0.66 c0.18 1.62 1.2 2.64 2.34 2.64 c0.72 0 1.5 -0.42 2.04 -1.38 c0.24 -0.42 0.42 -0.96 0.42 -1.5 c0 -0.06 0.06 -0.72 -0.42 -1.98 c-0.48 -1.2 -1.2 -2.52 -1.92 -3.72 l-0.36 -0.54 c-0.06 0.12 -0.12 0.3 -0.3 0.54 c-0.48 1.02 -0.9 1.98 -1.32 2.94 z"></path></g><g id="SvgjsG1018" featureKey="nameFeature-0" transform="matrix(2.137406771032853,0,0,2.137406771032853,-1.0854826471165426,176.30847258992188)" fill="#fefefe"><path d="M7.041 20.068359 l-0.12695 0 c-1.8652 0 -3.3984 -0.66406 -4.5996 -1.9824 s-1.8066 -2.9883 -1.8066 -5.0195 c0 -1.8555 0.50781 -3.418 1.5137 -4.6777 s2.3145 -2.0117 3.9355 -2.2656 l0.30273 -0.048828 l0.30273 -0.029297 l0.3418 0 c1.4453 0 2.6855 0.3418 3.7305 1.0156 l0.54688 0.35156 l-1.0645 0.9375 l-1.3965 -0.98633 c-0.6543 -0.47852 -1.3379 -0.71289 -2.0605 -0.71289 c-1.4844 0 -2.6953 0.79102 -3.6426 2.3828 c-0.73242 1.25 -1.1035 2.6367 -1.1035 4.1504 l0.0097656 0.39063 c0.22461 1.9141 0.85938 3.3105 1.9141 4.1992 s2.0605 1.3574 3.0078 1.4063 l0.097656 0.029297 l0.44922 0.019531 c0.78125 0 1.5527 -0.19531 2.3242 -0.5957 s1.3867 -1.0645 1.8652 -2.0117 l0.029297 -0.029297 l0 0.20508 l-0.029297 0.048828 c-0.9082 2.1484 -2.4219 3.2227 -4.541 3.2227 z M13.8720709375 20.087891 l-0.67383 0 c0.048828 -0.087891 1.6797 -4.8047 4.873 -14.131 l1.416 0 l4.4043 14.063 l-1.377 0 l-1.1035 -3.5059 l-6.3086 0 z M21.2158109375 15.9082 l-2.832 -8.9746 l-3.0762 8.9746 l5.9082 0 z M40.585921875 20.029297 l-1.3379 0 l0 -12.246 l-4.668 12.207 l0.019531 0.039063 l-1.416 0 l-4.2871 -12.197 l0 12.197 l-0.63477 0 c0 -9.3359 -0.0097656 -14.023 -0.029297 -14.063 l1.377 0 l4.6484 13.105 l5.0098 -13.105 l1.3184 0 l0 14.063 z M54.2625703125 20.019531 l-8.5156 0 l0 -14.063 l8.5156 0 l0 0.63477 l-7.1777 0 l0 6.0742 l5.1465 0 l0 0.63477 l-5.1465 0 l0 6.084 l7.1777 0 l0 0.63477 z M67.021265625 20.029297 l-1.3672 0 l-1.8848 -5.957 c-0.39063 0.068359 -0.81055 0.10742 -1.25 0.10742 l-3.6719 0 l0 5.8301 l-1.3379 0 l0 -14.072 l5.0098 0 c1.0156 0 1.8164 0.14648 2.4121 0.43945 c1.0645 0.52734 1.709 1.3379 1.9336 2.4219 c0.087891 0.43945 0.13672 0.9082 0.13672 1.3965 c0 1.6113 -0.6543 2.7637 -1.9629 3.4668 z M61.855465625 13.574200000000001 c1.2402 0 2.2168 -0.29297 2.9102 -0.88867 c0.5957 -0.52734 0.89844 -1.4063 0.89844 -2.627 s-0.33203 -2.1289 -1.0059 -2.7246 c-0.60547 -0.52734 -1.543 -0.79102 -2.8027 -0.79102 l-3.0078 0 l0 7.0313 l3.0078 0 z M75.1025390625 20.0097656 c-1.7676 -0.068359 -3.2031 -0.73242 -4.3164 -2.002 c-1.1816 -1.3867 -1.7773 -3.0469 -1.7773 -4.9707 c0 -1.9434 0.5957 -3.6035 1.7773 -4.9902 c1.2793 -1.3574 2.832 -2.0313 4.6387 -2.0313 s3.3496 0.67383 4.6094 2.0313 c1.2012 1.3867 1.8066 3.0469 1.8066 4.9902 c0 1.9238 -0.60547 3.584 -1.8066 4.9707 c-1.1035 1.3379 -2.5488 2.0117 -4.3359 2.0117 l-0.097656 0 z M75.5810390625 19.45312 c1.2012 0 2.3047 -0.53711 3.3203 -1.6016 c1.0645 -1.1816 1.5918 -2.7637 1.5918 -4.7559 l0 -0.18555 c-0.097656 -2.0215 -0.55664 -3.5254 -1.3672 -4.5117 c-0.98633 -1.1816 -2.1875 -1.7773 -3.6035 -1.7773 c-1.377 0 -2.5684 0.49805 -3.5742 1.4941 c-1.0645 1.1328 -1.6016 2.7148 -1.6016 4.7461 l0.0097656 0.2832 c0.087891 2.207 0.71289 3.8477 1.875 4.9121 c0.99609 0.9082 2.1094 1.377 3.3496 1.3965 z M87.4218375 20.068359 l-0.60547 0 l0 -14.072 l0.60547 0 l8.2422 11.709 l0 -11.699 l0.60547 0 l0 14.053 l-0.60547 0 l-8.2422 -11.719 l0 11.729 z M120.429671875 20.029297 l-1.3379 0 l0 -12.246 l-4.668 12.207 l0.019531 0.039063 l-1.416 0 l-4.2871 -12.197 l0 12.197 l-0.63477 0 c0 -9.3359 -0.0097656 -14.023 -0.029297 -14.063 l1.377 0 l4.6484 13.105 l5.0098 -13.105 l1.3184 0 l0 14.063 z M126.9189859375 20.048828 l-1.3379 0 l0 -14.053 l1.3379 0 l0 14.053 z M140.683875 20.029297 l-8.5742 0 l0 -14.053 l1.3477 0 l0 13.418 l3.1445 0 c0.9082 -0.068359 1.6699 -0.21484 2.2754 -0.42969 s1.0547 -0.41992 1.3574 -0.625 l0.44922 -0.30273 l0 1.9922 z M152.6418828125 20.029297 l-8.5742 0 l0 -14.053 l1.3477 0 l0 13.418 l3.1445 0 c0.9082 -0.068359 1.6699 -0.21484 2.2754 -0.42969 s1.0547 -0.41992 1.3574 -0.625 l0.44922 -0.30273 l0 1.9922 z M158.642584375 20.058594 l-0.95703 -0.029297 c-0.79102 -0.029297 -1.5625 -0.25391 -2.3145 -0.66406 l-0.94727 -0.58594 l1.1621 -1.0352 l1.3184 0.92773 c0.76172 0.51758 1.582 0.77148 2.4609 0.77148 l0.10742 0 c2.2754 -0.11719 3.418 -0.95703 3.418 -2.5098 c0 -1.123 -1.2891 -2.3242 -3.877 -3.6035 c-0.25391 -0.13672 -0.53711 -0.27344 -0.83984 -0.40039 c-0.5957 -0.27344 -1.1719 -0.57617 -1.7383 -0.89844 s-1.0352 -0.70313 -1.4063 -1.1523 c-0.37109 -0.43945 -0.55664 -0.98633 -0.55664 -1.6309 c0 -0.72266 0.35156 -1.3965 1.0645 -2.0117 s1.709 -1.0254 2.9883 -1.2109 l1.0156 -0.048828 c0.9668 0.029297 1.8652 0.25391 2.7051 0.68359 l0.99609 0.58594 l-1.0645 0.91797 l-1.543 -0.99609 c-0.6543 -0.40039 -1.2012 -0.60547 -1.6211 -0.60547 c-0.94727 0.10742 -1.7285 0.40039 -2.3242 0.88867 s-0.89844 1.084 -0.89844 1.7773 c0 0.58594 0.25391 1.0449 0.75195 1.3867 s1.1035 0.67383 1.8359 1.0156 c0.49805 0.24414 1.0156 0.49805 1.543 0.76172 c0.84961 0.43945 1.5918 0.86914 2.2461 1.2891 s1.1621 0.88867 1.5332 1.4063 s0.55664 1.1621 0.55664 1.9238 c0 1.6211 -1.2988 2.6074 -3.9063 2.959 c-0.16602 0.058594 -0.73242 0.087891 -1.709 0.087891 z"></path></g><g id="SvgjsG1019" featureKey="sloganFeature-0" transform="matrix(1.1404125068463296,0,0,1.1404125068463296,34.543879887213386,222.43215575742045)" fill="#fefefe"><path d="M1.0563 19.103 c-0.154 0.19061 -0.34168 0.21094 -0.60948 0.056544 c-0.025 -0.1024 -0.040606 -0.2068 -0.046796 -0.31218 c-0.0011914 -0.3176 0.014414 -0.635 0.046816 -0.951 c0.042206 -0.3334 0.043008 -0.6708 0.002207 -1.0046 c-0.017793 -0.2046 -0.0208 -0.41022 -0.0091992 -0.61522 c0.013008 -0.13619 0.12621 -0.2412 0.2632 -0.2436 c0.19 -0.034804 0.3814 0.0542 0.4776 0.2218 c0.066796 0.1124 0.1274 0.2284 0.18141 0.3474 c0.2984 0.6034 0.6518 1.178 1.0562 1.7162 c0.4814 0.677 1.1894 1.1588 1.9958 1.3584 c0.364 0.089394 0.7418 0.10619 1.1124 0.049786 c0.3368 -0.045 0.6498 -0.1982 0.8918 -0.4368 c0.47 -0.4352 0.79 -1.008 0.9148 -1.6362 c0.054394 -0.276 0.0458 -0.5608 -0.025 -0.833 c-0.059804 -0.3128 -0.1884 -0.6084 -0.3768 -0.8652 c-0.068204 -0.088204 -0.1458 -0.169 -0.2314 -0.2406 c-0.7068 -0.5532 -1.485 -1.0086 -2.3134 -1.3542 c-0.6116 -0.2322 -1.196 -0.5306 -1.7426 -0.89022 c-0.565 -0.4022 -1.045 -0.9122 -1.412 -1.5006 c-0.2004 -0.3164 -0.3418 -0.6666 -0.41718 -1.0334 c-0.1082 -0.454 -0.171 -0.9176 -0.1876 -1.384 c0.005 -0.4106 0.065 -0.81862 0.1784 -1.2134 c0.0408 -0.1634 0.10561 -0.3198 0.1924 -0.4642 c0.068204 -0.11141 0.12961 -0.2272 0.1966 -0.33942 c0.2952 -0.5016 0.7188 -0.9154 1.2272 -1.1988 c0.877 -0.4942 1.0204 -0.5004 1.9652 -0.52398 c0.7122 -0.016406 1.4186 0.13039 2.0654 0.42878 c0.272 0.12301 0.541 0.25362 0.8076 0.38862 c0.15561 0.090196 0.33362 0.13439 0.51342 0.12719 l0.3474 -0.2084 c0.091602 -0.036602 0.19641 -0.013809 0.2648 0.057382 c0.047598 0.056602 0.08 0.124 0.09461 0.19621 c0.013809 0.11119 0.018809 0.22318 0.014609 0.33518 c0 0.5418 -0.00060546 1.0836 -0.0016016 1.6256 c0.0019922 0.093204 -0.0038086 0.18621 -0.017402 0.27842 c-0.016602 0.05039 -0.04041 0.098184 -0.071212 0.14139 c-0.1842 0.083008 -0.397 0.073204 -0.5728 -0.026406 c-0.067794 -0.14939 -0.1452 -0.31798 -0.2208 -0.48718 c-0.3548 -0.7676 -0.9088 -1.426 -1.6048 -1.9064 c-0.12301 -0.084804 -0.2512 -0.1616 -0.384 -0.2302 c-0.4678 -0.2408 -0.99898 -0.3304 -1.5198 -0.2558 c-0.337 0.043008 -0.6462 0.2084 -0.8692 0.4648 c-0.116 0.12199 -0.21638 0.2578 -0.29898 0.4046 c-0.2638 0.4538 -0.4258 0.95942 -0.4748 1.482 c-0.051406 0.5092 0.1018 1.0182 0.4256 1.4146 c0.3904 0.5052 0.8968 0.9092 1.476 1.1776 c0.5814 0.2554 1.1654 0.50478 1.7456 0.76178 c1.0984 0.4484 2.029 1.2294 2.661 2.2334 c0.2486 0.3762 0.3926 0.8118 0.4168 1.262 c0.0035938 0.1492 0.010586 0.2986 0.016777 0.4478 c0.017793 0.9024 -0.22022 1.7914 -0.6864 2.5642 c-0.204 0.3372 -0.47862 0.6264 -0.8048 0.84782 c-0.6502 0.482 -1.4334 0.75138 -2.2426 0.77138 c-0.2426 0.0074024 -0.4858 0.0046094 -0.7286 0.0070118 c-0.8844 -0.0096094 -1.7442 -0.29102 -2.4634 -0.80562 c-0.1866 -0.12381 -0.3722 -0.24862 -0.5596 -0.37102 c-0.095996 -0.05961 -0.2076 -0.089004 -0.3206 -0.0842 c-0.09461 -0.0041992 -0.18602 0.03541 -0.24762 0.1074 c-0.035196 0.041992 -0.055996 0.097792 -0.091192 0.14059 z M18.862099999999998 20.1166 l0.0026368 0.006836 c-0.3366 -0.011191 -0.673 -0.013398 -1.0078 -0.0358 c-0.3908 -0.024804 -0.7784 -0.088204 -1.1568 -0.1892 c-0.0542 -0.014395 -0.1082 -0.029004 -0.16301 -0.042012 c-0.8888 -0.2276 -1.7216 -0.6348 -2.4472 -1.1964 c-0.1824 -0.13039 -0.3514 -0.2784 -0.5048 -0.4418 c-0.531 -0.5284 -0.955 -1.1544 -1.2488 -1.8436 c-0.176 -0.4524 -0.3116 -0.9196 -0.4054 -1.396 c-0.065 -0.2916 -0.10721 -0.588 -0.12602 -0.8864 c-0.0041992 -0.11119 -0.031992 -0.22138 -0.044786 -0.33238 c-0.019609 -0.1668 -0.046602 -0.3336 -0.05041 -0.5008 c-0.0075976 -0.3548 -0.011602 -0.7102 0 -1.0646 c0.0208 -0.4668 0.10199 -0.929 0.242 -1.3748 c0.3248 -1.1176 0.9222 -2.137 1.7388 -2.9664 c0.7314 -0.728 1.6304 -1.2656 2.6178 -1.5654 c0.587 -0.1868 1.1942 -0.3032 1.8088 -0.34702 c0.11141 -0.0080078 0.2226 -0.022618 0.3334 -0.039024 c0.3684 -0.067206 0.7458 -0.068398 1.1148 -0.0033984 c0.091406 0.018594 0.18441 0.0292 0.27782 0.031796 c0.5222 0.03039 1.0394 0.12039 1.5412 0.26818 c0.5596 0.1508 1.092 0.389 1.5774 0.7056 c0.6752 0.4372 1.2794 0.97522 1.7918 1.5952 c0.5926 0.7036 1.0038 1.5416 1.1978 2.4406 c0.1584 0.6344 0.243 1.285 0.2522 1.9388 c-0.0014063 0.018594 -0.0014063 0.037402 0 0.055996 c0.055196 0.5762 0.012988 1.1576 -0.12461 1.7198 c-0.14699 0.8096 -0.41738 1.5918 -0.8012 2.3194 c-0.203 0.4006 -0.4672 0.7672 -0.78282 1.0866 c-0.4698 0.3972 -0.9666 0.7614 -1.4868 1.09 c-0.5238 0.2884 -1.0786 0.5166 -1.6538 0.6802 c-0.5896 0.18199 -1.2022 0.27818 -1.8192 0.28598 c-0.2242 0.0024024 -0.4484 0 -0.673 0 z M14.5343 13.152999999999999 l0.00080078 -0.0010352 c0.0053906 0.1758 -0.0058008 0.5138 0.031796 0.8464 c0.054394 0.4814 0.13459 0.9604 0.2212 1.4374 c0.068204 0.4048 0.16701 0.80362 0.29582 1.1934 c0.265 0.821 0.7298 1.5636 1.3528 2.1604 c0.6346 0.6224 1.4934 0.9624 2.3822 0.9428 c0.6148 -0.0358 1.219 -0.17721 1.7858 -0.4184 c0.4846 -0.2452 0.91782 -0.5808 1.2764 -0.9884 c0.467 -0.537 0.826 -1.1588 1.0576 -1.8314 c0.3102 -0.9004 0.49798 -1.8382 0.55878 -2.7886 c0.017598 -0.2416 0.042206 -0.4836 0.057598 -0.72478 c0.015195 -0.1108 0.014199 -0.223 -0.002793 -0.3334 c-0.043398 -0.2198 -0.061796 -0.4438 -0.05459 -0.66782 c0.0038086 -0.3362 -0.038788 -0.67138 -0.12619 -0.9962 c-0.095996 -0.341 -0.17439 -0.6868 -0.2682 -1.0286 c-0.1282 -0.468 -0.3044 -0.9216 -0.5258 -1.3534 c-0.3406 -0.6246 -0.81362 -1.1672 -1.3862 -1.5896 c-0.1166 -0.093594 -0.2426 -0.17459 -0.376 -0.242 c-1.0416 -0.5116 -1.8298 -0.537 -2.8778 -0.28318 c-0.7314 0.2556 -1.411 0.5906 -1.8906 1.2326 c-0.033398 0.044804 -0.072794 0.085196 -0.10799 0.12879 c-0.238 0.2884 -0.4332 0.6096 -0.58 0.9534 c-0.072206 0.17221 -0.15102 0.3416 -0.2146 0.517 c-0.1658 0.416 -0.2982 0.8444 -0.39622 1.2814 c-0.15721 0.8416 -0.2288 1.697 -0.2138 2.5532 z M37.684 6.095000000000001 c0.058398 0.0069922 0.11623 0.017305 0.17322 0.030898 c0.043398 0.06 0.0808 0.1242 0.1116 0.19141 c0.024004 0.070996 0.03541 0.14561 0.034004 0.2206 c0.0085938 0.467 0.066992 0.9316 0.1742 1.3862 c0.0038086 0.043808 0.0038086 0.088008 0 0.13182 c-0.11561 0.19119 -0.2982 0.15 -0.4986 0.1066 c-0.048398 -0.052206 -0.092402 -0.10861 -0.131 -0.16842 c-0.083808 -0.14561 -0.15881 -0.296 -0.2246 -0.4506 c-0.14539 -0.3264 -0.386 -0.6014 -0.69 -0.789 c-0.1834 -0.1318 -0.4022 -0.2056 -0.62782 -0.21202 c-0.1682 -0.0038086 -0.3366 -0.0070118 -0.5048 -0.017207 c-0.242 -0.014609 -0.4836 -0.03961 -0.7254 -0.052402 c-0.2796 -0.014609 -0.5598 -0.026602 -0.8396 -0.029394 c-0.4672 -0.0043946 -0.934 0 -1.4012 0 c-0.080196 -0.0048046 -0.1576 0.03039 -0.2064 0.094394 c-0.012207 0.048204 -0.02041 0.097402 -0.02461 0.14721 c-0.018398 0.8216 -0.028398 1.6428 -0.013789 2.465 c0.015996 0.8962 0.0033984 1.7932 0.003789 2.6898 c0 0.1682 0 0.3364 0.007793 0.5048 c0.0091992 0.055196 0.024804 0.1092 0.046406 0.1608 c0.05 0.02461 0.10301 0.042012 0.15781 0.05162 c0.691 0.010391 1.3822 0.016387 2.0732 0.023984 c0.16779 -0.0066016 0.3342 -0.033808 0.4952 -0.081406 c0.2966 -0.070196 0.54122 -0.2794 0.6562 -0.5618 c0.1426 -0.264 0.23298 -0.55282 0.26638 -0.85102 c0.0080078 -0.035996 0.021406 -0.070606 0.03961 -0.1026 c0.093204 -0.095196 0.2292 -0.13459 0.3588 -0.10398 c0.095996 -0.0033984 0.18639 0.044804 0.23738 0.12621 c0.057598 0.5168 0.070606 3.0202 0.017813 3.6382 c-0.13641 0.14721 -0.2982 0.08961 -0.4816 0.044004 c-0.0358 -0.058204 -0.066992 -0.1192 -0.092988 -0.1826 c-0.035606 -0.105 -0.055 -0.2166 -0.086796 -0.3238 c-0.0342 -0.1258 -0.07459 -0.2498 -0.12139 -0.3714 c-0.1634 -0.4312 -0.5624 -0.72818 -1.0224 -0.76138 c-0.13 -0.012402 -0.2606 -0.017598 -0.39122 -0.015391 c-0.5418 -0.0046094 -1.0832 -0.0080078 -1.6248 -0.0098046 c-0.1484 0 -0.2968 0.010195 -0.4258 0.015 l-0.1098 0.10279 c-0.0046094 0.14221 -0.011816 0.2908 -0.013613 0.4398 c-0.0056054 0.4668 -0.006211 0.934 -0.014414 1.4008 c-0.0033984 0.18641 -0.01959 0.37282 -0.033184 0.55862 c-0.027598 0.335 -0.025 0.672 0.007793 1.0066 c0.020996 0.2038 0.02959 0.4092 0.036992 0.614 c0.016797 0.4668 0.029394 0.9334 0.044004 1.4 c-0.0038086 0.1992 0.053594 0.3948 0.16439 0.5604 c0.2782 0.12801 0.5658 0.2346 0.8602 0.31862 c0.091992 0.096796 0.12359 0.236 0.082598 0.36298 c-0.01 0.076992 -0.066796 0.13979 -0.1426 0.15719 c-0.31 0.06539 -0.6246 0.1076 -0.9408 0.12619 c-0.5792 0 -1.1584 0.0074024 -1.7376 0.0070118 c-0.1868 0.0066016 -0.3736 -0.0024024 -0.55878 -0.027012 c-0.2952 -0.047206 -0.5954 -0.0558 -0.8928 -0.025196 c-0.092402 0.007793 -0.18541 0.0063868 -0.27762 -0.004414 c-0.096992 0.0033984 -0.19199 -0.027402 -0.2686 -0.087012 c-0.0558 -0.1332 -0.058398 -0.2826 -0.0074024 -0.4178 c0.046602 -0.08539 0.1324 -0.14219 0.2294 -0.15158 c0.14721 -0.026796 0.2956 -0.036192 0.443 -0.057382 c0.2104 -0.022206 0.385 -0.17301 0.4374 -0.37782 c0.057598 -0.17779 0.086602 -0.3636 0.086602 -0.5504 c0 -0.4672 0.0069922 -0.9342 0.011387 -1.4012 c0.0066016 -0.6912 0.013594 -1.3822 0.021192 -2.0734 c-0.0016016 -0.1124 0.0032032 -0.2246 0.014395 -0.3364 c0.058808 -0.5758 0.060606 -1.1558 0.0054102 -1.7318 c-0.0458 -0.652 -0.038594 -1.3064 -0.043594 -1.9598 c-0.0074024 -0.9714 -0.0066016 -1.9428 -0.006211 -2.914 c-0.005996 -0.2432 -0.043788 -0.4844 -0.11219 -0.7176 c-0.047598 -0.184 -0.17879 -0.3352 -0.35418 -0.4082 c-0.1376 -0.058398 -0.2836 -0.09459 -0.4324 -0.10779 c-0.096602 -0.002793 -0.18859 -0.042188 -0.25718 -0.1102 c-0.084394 -0.1652 -0.059394 -0.3652 0.063008 -0.5046 c0.058808 -0.015801 0.11861 -0.026602 0.179 -0.032402 c1.2142 -0.0041992 2.4282 -0.002793 3.6424 -0.01 c0.9152 -0.0053906 1.8296 -0.030196 2.7458 -0.03 c0.8032 0 1.6064 0.022794 2.4094 0.036602 z M53.6415 8.13 c0.010996 0.07 0.011074 0.14117 -0.00011719 0.21118 c-0.098398 0.09461 -0.2388 0.1308 -0.37058 0.0958 c-0.093808 -0.011992 -0.1798 -0.058594 -0.241 -0.13059 c-0.073204 -0.0842 -0.13961 -0.175 -0.21202 -0.26 c-0.17 -0.1984 -0.3384 -0.3982 -0.5136 -0.59202 c-0.3174 -0.353 -0.7652 -0.56102 -1.2398 -0.57582 c-0.9508 -0.062794 -1.9048 -0.062794 -2.8556 0 c-0.016797 0.0024024 -0.033398 0.0064062 -0.04959 0.011797 c-0.068204 0.037206 -0.1098 0.10941 -0.1084 0.18701 c-0.002793 0.3364 -0.0024024 0.673 -0.0046094 1.0094 c-0.004004 0.617 -0.0083984 1.2332 -0.013398 1.849 c-0.0014063 0.2056 -0.0033984 0.411 -0.0035938 0.61638 l0 5.156 c0 0.9528 -0.005 1.9056 -0.0030078 2.8584 c0.0011914 0.1676 0.014785 0.335 0.040782 0.5006 c0.020606 0.0942 0.091796 0.1692 0.1848 0.19459 c0.071602 0.019609 0.145 0.032618 0.219 0.039218 c0.0908 0.013203 0.1816 0.024394 0.2606 0.034786 c0.13119 0.1292 0.15939 0.3302 0.068788 0.4902 c-0.481 0.141 -0.9832 0.195 -1.483 0.15961 c-0.6166 -0.002793 -1.233 0.0024024 -1.8494 0 c-0.2052 0 -0.4104 -0.011191 -0.615 -0.026582 c-0.0508 -0.013203 -0.098808 -0.03541 -0.14182 -0.06541 c-0.074004 -0.13359 -0.071602 -0.29638 0.0064062 -0.42758 c0.0308 -0.025196 0.064394 -0.046386 0.10039 -0.062988 c0.12619 -0.038008 0.25238 -0.07041 0.37858 -0.104 c0.1482 -0.038808 0.263 -0.15621 0.2984 -0.30542 c0.021406 -0.071192 0.037402 -0.1442 0.048204 -0.2178 c0.0066016 -0.0558 0.009004 -0.11199 0.007207 -0.16818 c0.0032032 -1.3452 0.0064062 -2.6902 0.009414 -4.0352 c0.0016016 -0.7846 0.0025976 -1.569 0.0035938 -2.3536 c0 -0.074804 0.0019922 -0.14961 0.0019922 -0.22422 l0 -4.5954 c0 -0.14721 -0.011602 -0.2962 -0.017207 -0.4288 c-0.04461 -0.038594 -0.069804 -0.078984 -0.10061 -0.08418 c-0.11 -0.018008 -0.2214 -0.027812 -0.333 -0.029004 c-0.6914 0 -1.3826 0.0091992 -2.074 0.0056054 c-0.3178 0.0061914 -0.6334 0.053398 -0.9392 0.14061 c-0.3094 0.081192 -0.5912 0.24478 -0.8154 0.47318 c-0.264 0.2634 -0.5244 0.531 -0.8174 0.8282 l-0.3862 0.088808 l-0.151 -0.079804 c-0.0091992 -0.043594 -0.030606 -0.082792 -0.020996 -0.11299 c0.042206 -0.14279 0.092598 -0.2836 0.1424 -0.4242 c0.16961 -0.4352 0.36622 -0.8594 0.5888 -1.27 c0.13119 -0.255 0.3868 -0.4222 0.67298 -0.44022 c0.055996 -0.0061914 0.11219 -0.008789 0.16838 -0.0079882 c0.6162 -0.0025976 1.2324 -0.0045898 1.849 -0.005996 c0.766 -0.0030078 1.5316 -0.01 2.2976 -0.0096094 c1.1956 0 2.3912 0.0067968 3.5868 0.0095898 c0.6538 0.0014063 1.3078 0.0054102 1.9616 0.000019531 c0.2046 -0.0019922 0.4088 -0.032382 0.6132 -0.050176 c0.092792 -0.0082032 0.1852 -0.019004 0.2784 -0.02461 c0.3462 -0.041192 0.67898 0.14721 0.82178 0.465 c0.2896 0.544 0.54022 1.108 0.7504 1.6874 z M55.17034 6.539 c-0.0053906 -0.17061 0.055996 -0.33674 0.17139 -0.46274 c0.11721 -0.011602 0.22702 -0.032402 0.3364 -0.032402 c0.7472 0 1.4946 0.0074024 2.242 0.0080078 c0.4482 0 0.8966 -0.0080078 1.3458 -0.0096094 c0.13539 -0.016602 0.27238 0.0053906 0.39578 0.063184 c0.028594 0.041406 0.052402 0.0858 0.071212 0.1324 c0.034004 0.12721 0.033614 0.26102 -0.0011914 0.388 c-0.018398 0.09461 -0.08959 0.17021 -0.18299 0.19402 c-0.14301 0.036192 -0.2908 0.054394 -0.4458 0.082188 c-0.04 0.063398 -0.072598 0.13119 -0.096602 0.20218 c-0.03 0.1474 -0.019004 0.3002 0.031386 0.4418 c0.085606 0.2468 0.16381 0.4966 0.26102 0.739 c0.3136 0.7794 0.6086 1.5662 0.885 2.3598 c0.272 0.7756 0.5628 1.5436 0.8726 2.3046 c0.2104 0.5192 0.39378 1.0488 0.602 1.5686 c0.2774 0.6928 0.5664 1.381 0.8542 2.0696 c0.010801 0.02539 0.060996 0.034394 0.092792 0.051192 c0.5798 -1.3166 1.8908 -4.9528 2.1316 -5.9198 c-0.038594 -0.1002 -0.0808 -0.22298 -0.1324 -0.34158 c-0.2314 -0.531 -0.4484 -1.0672 -0.643 -1.613 c-0.1002 -0.2812 -0.2102 -0.5594 -0.3224 -0.8362 c-0.091406 -0.225 -0.2062 -0.44 -0.3424 -0.6414 c-0.1524 -0.2386 -0.3868 -0.4132 -0.659 -0.4908 c-0.089394 -0.025196 -0.179 -0.04959 -0.2482 -0.068984 c-0.10561 -0.063808 -0.15441 -0.19121 -0.11861 -0.30922 c0.010391 -0.087598 0.037988 -0.17221 0.080996 -0.2492 c0.0892 -0.078808 0.20458 -0.1216 0.3236 -0.12 c0.6152 -0.0308 1.2288 -0.09 1.8452 -0.08961 c0.598 0 1.1958 0.0019922 1.7938 -0.0024024 c0.2618 -0.007793 0.5232 0.027012 0.774 0.10301 c0.034004 0.014609 0.066602 0.032206 0.097208 0.052812 c0.1082 0.2314 0.1082 0.2314 -0.03539 0.5874 c-0.2812 0.12779 -0.6168 0.0842 -0.8854 0.2072 c-0.091192 0.080996 -0.1426 0.19779 -0.14061 0.31978 c-0.0098046 0.18721 0.022988 0.3742 0.096192 0.5468 c0.079394 0.18939 0.15379 0.3816 0.2426 0.5666 c0.3564 0.7416 0.65202 1.5084 0.94842 2.2746 c0.3502 0.9056 0.694 1.8136 1.0386 2.7212 c0.2856 0.7502 0.56782 1.5016 0.8564 2.2502 c0.051602 0.17859 0.1326 0.3476 0.2394 0.4998 c0.1218 -0.071796 0.11959 -0.19219 0.14719 -0.28998 c0.156 -0.5766 0.2978 -1.1568 0.4534 -1.7334 c0.258 -0.955 0.5248 -1.9076 0.784 -2.8622 c0.19561 -0.721 0.4232 -1.4322 0.666 -2.1386 c0.1384 -0.4262 0.2516 -0.8604 0.3392 -1.2998 c0.072794 -0.2502 0.074394 -0.5158 0.0047852 -0.7668 c-0.2 -0.2974 -0.5322 -0.2458 -0.7598 -0.3274 c-0.235 -0.011992 -0.4022 0.13801 -0.59622 0.059004 c-0.07961 -0.0808 -0.1148 -0.19541 -0.094414 -0.30702 c0 -0.10939 -0.018008 -0.227 0.088984 -0.3088 c0.1176 -0.056992 0.2488 -0.07959 0.3786 -0.064786 c0.4484 -0.0061914 0.8968 -0.008789 1.346 -0.0047852 c0.5418 0.005 1.0832 0.017598 1.625 0.028204 c0.093204 0.0016016 0.1866 0.0066016 0.2792 0.015801 c0.11359 0.019199 0.20398 0.10561 0.22798 0.2182 c0.015195 0.12779 0.017402 0.2574 0.022794 0.3496 c-0.031992 0.1048 -0.12639 0.1784 -0.236 0.18359 c-0.111 0.010391 -0.2236 0.0079882 -0.33638 0.010586 c-0.171 0.0061914 -0.33 0.08959 -0.4322 0.22658 c-0.11939 0.14461 -0.21 0.31042 -0.2672 0.489 c-0.13961 0.4254 -0.2832 0.84978 -0.4206 1.2766 c-0.1876 0.5864 -0.3756 1.1732 -0.55362 1.763 c-0.334 1.1078 -0.6604 2.218 -0.9916 3.327 c-0.095996 0.322 -0.18779 0.6454 -0.29718 0.96298 c-0.1518 0.4414 -0.2812 0.89022 -0.38738 1.3448 c-0.13359 0.5824 -0.30478 1.1558 -0.51258 1.716 c-0.2336 0.6106 -0.4062 1.2428 -0.5154 1.8874 c-0.004004 0.055606 -0.019805 0.1098 -0.046406 0.15881 c-0.036602 0.063808 -0.091212 0.11561 -0.15701 0.1484 c-0.2086 0.0908 -0.44978 0.063808 -0.63298 -0.070996 c-0.1116 -0.17461 -0.19939 -0.3632 -0.26058 -0.56122 c-0.1108 -0.2774 -0.2206 -0.5556 -0.318 -0.8376 c-0.171 -0.4952 -0.39 -0.97 -0.6008 -1.4484 c-0.6406 -1.4522 -1.2674 -2.9104 -1.8438 -4.3898 c-0.067794 -0.17359 -0.14719 -0.3428 -0.22838 -0.5112 c-0.033594 -0.052794 -0.072188 -0.10219 -0.11578 -0.14719 c-0.041992 0.063808 -0.080196 0.13021 -0.11359 0.19881 c-0.3228 0.7962 -0.6476 1.591 -0.962 2.3902 c-0.2524 0.6428 -0.4978 1.2884 -0.7362 1.9372 c-0.3154 0.8584 -0.62238 1.7204 -0.93238 2.581 c-0.094804 0.269 -0.2056 0.5322 -0.3318 0.7882 c-0.070196 0.081992 -0.1758 0.1252 -0.2834 0.11559 c-0.1566 -0.0017969 -0.3092 -0.050996 -0.4374 -0.141 c-0.227 -0.2664 -0.4026 -0.5724 -0.5178 -0.9028 c-0.14539 -0.364 -0.26818 -0.73702 -0.4178 -1.0992 c-0.2214 -0.5346 -0.45122 -1.0658 -0.6896 -1.5936 c-0.4718 -1.0376 -0.8778 -2.1018 -1.2914 -3.163 c-0.461 -1.1828 -0.9208 -2.3662 -1.3796 -3.5502 c-0.2036 -0.5218 -0.4128 -1.0414 -0.6212 -1.5614 c-0.06961 -0.1732 -0.14342 -0.345 -0.21862 -0.5158 c-0.081406 -0.1892 -0.19521 -0.3626 -0.3364 -0.5126 c-0.13221 -0.1598 -0.3156 -0.2692 -0.5192 -0.30958 c-0.073008 -0.014609 -0.1432 -0.0408 -0.208 -0.077794 c-0.08461 -0.043808 -0.13801 -0.13141 -0.13801 -0.2268 z M76.1117 19.8916 c-0.041992 -0.0066016 -0.083242 -0.016855 -0.12363 -0.03086 c-0.034804 -0.036192 -0.062598 -0.078594 -0.081992 -0.125 c-0.015 -0.072598 -0.017402 -0.14721 -0.007207 -0.2206 c0.0098046 -0.13539 0.1102 -0.247 0.2438 -0.2712 c0.1474 -0.022598 0.2962 -0.036992 0.44522 -0.043184 c0.2058 -0.011191 0.4078 -0.059786 0.5962 -0.14299 c0.3362 -0.129 0.6026 -0.3934 0.7342 -0.7284 c0.034804 -0.086796 0.06961 -0.17359 0.096406 -0.2628 c0.1874 -0.6254 0.3996 -1.2432 0.5654 -1.8756 c0.1276 -0.487 0.2856 -0.9658 0.429 -1.4488 c0.14359 -0.4828 0.2844 -0.9674 0.4282 -1.4496 c0.079804 -0.2682 0.1532 -0.5388 0.2468 -0.8024 c0.2808 -0.8112 0.5076 -1.6402 0.6786 -2.4816 c0.038594 -0.1824 0.077794 -0.3652 0.12959 -0.5442 c0.1608 -0.5554 0.328 -1.109 0.4922 -1.6636 c0.047598 -0.1608 0.10141 -0.321 0.1374 -0.4836 c0.035996 -0.16279 0.052188 -0.3274 0.077578 -0.494 c0.051602 -0.026796 0.105 -0.049394 0.1602 -0.067598 c0.2536 -0.061192 0.50878 -0.116 0.76238 -0.1776 c0.090996 -0.021192 0.18 -0.05 0.2664 -0.085996 c0.2408 -0.070196 0.4118 -0.2842 0.42718 -0.5348 c0.0033984 -0.037206 0.011406 -0.073808 0.024004 -0.10881 c0.0082032 -0.015801 0.019004 -0.03 0.031796 -0.042206 c0.10619 -0.050606 0.22718 -0.060606 0.3402 -0.028614 c0.04461 0.0508 0.08541 0.105 0.12201 0.1618 c0.12199 0.2314 0.21818 0.4754 0.287 0.72782 c0.12 0.3926 0.243 0.7838 0.363 1.1766 c0.109 0.3574 0.226 0.7116 0.321 1.0726 c0.1802 0.647 0.3936 1.2846 0.6394 1.9098 c0.3822 1.0132 0.7072 2.0462 1.0306 3.0788 c0.3686 1.1754 0.7376 2.35 1.1908 3.4964 c0.1374 0.347 0.2578 0.7008 0.39218 1.0488 c0.050996 0.14 0.11439 0.2754 0.1892 0.4042 c0.14699 0.2678 0.42138 0.4408 0.72638 0.4584 c0.073808 0.005 0.14721 0.018594 0.21362 0.027402 c0.115 0.1326 0.1398 0.321 0.063204 0.479 c-0.026192 0.071992 -0.087792 0.12559 -0.16279 0.14158 c-0.08961 0.025 -0.18201 0.038398 -0.2748 0.04039 c-1.1568 0.0098046 -2.3154 0.053808 -3.4736 0.016406 c-0.373 -0.011992 -0.7464 -0.012988 -1.1196 -0.020996 c-0.096602 -0.0075976 -0.17121 -0.088594 -0.17082 -0.18539 c0.020996 -0.14721 0.049394 -0.293 0.068594 -0.40442 c0.056992 -0.11359 0.17318 -0.18559 0.30018 -0.18619 c0.186 -0.012793 0.37218 -0.020996 0.52078 -0.028788 c0.2948 -0.091602 0.4666 -0.3978 0.391 -0.69718 c-0.037598 -0.2206 -0.090196 -0.4384 -0.1574 -0.652 c-0.233 -0.787 -0.47022 -1.5728 -0.7114 -2.3578 c-0.052206 -0.1592 -0.1132 -0.3156 -0.18281 -0.4682 c-0.0342 -0.099804 -0.0992 -0.186 -0.18561 -0.24638 c-0.063204 -0.0038086 -0.1534 -0.014199 -0.2448 -0.01459 c-1.2512 -0.0051954 -2.5022 -0.008789 -3.7534 -0.010996 c-0.038808 0.0085938 -0.076016 0.023788 -0.10961 0.044786 c-0.032206 0.042402 -0.058204 0.089394 -0.077012 0.1392 c-0.1648 0.729 -0.40622 1.436 -0.60702 2.1546 c-0.075196 0.2696 -0.1626 0.5358 -0.2342 0.8064 c-0.057206 0.216 -0.1024 0.4352 -0.14721 0.6544 c-0.0292 0.1642 0.017207 0.3326 0.12621 0.45878 c0.3186 0.2188 0.6954 0.16441 1.0374 0.2696 c0.11881 0.16359 0.13061 0.3816 0.030214 0.5572 c-0.098808 0.098008 -0.23042 0.1558 -0.36942 0.16199 c-0.1682 0.011406 -0.3366 0.017402 -0.5036 0.015 c-0.3734 -0.005996 -0.7488 0.0028126 -1.1196 -0.033984 c-0.5022 -0.05 -1.0046 -0.065 -1.508 -0.080996 z M83.49549999999999 14.1768 c-0.013203 -0.061796 -0.022598 -0.13463 -0.0442 -0.20364 c-0.061406 -0.1952 -0.12801 -0.38878 -0.19182 -0.5834 c-0.2848 -0.8672 -0.534 -1.7456 -0.8932 -2.5868 c-0.1632 -0.3962 -0.2998 -0.80298 -0.4084 -1.2174 c-0.12881 -0.467 -0.2566 -0.93398 -0.3892 -1.4 c-0.030196 -0.076602 -0.066602 -0.15061 -0.10881 -0.2214 c-0.031406 0.051796 -0.059804 0.1052 -0.085196 0.16 c-0.13301 0.3678 -0.24362 0.7434 -0.33122 1.1246 c-0.11619 0.47 -0.241 0.938 -0.369 1.4048 c-0.1684 0.61 -0.3468 1.218 -0.51218 1.8298 c-0.12619 0.4674 -0.24238 0.9378 -0.40398 1.395 c-0.036796 0.105 -0.061406 0.2132 -0.086602 0.3024 c0.041992 0.0708 0.1234 0.10859 0.2048 0.095 c1.1 0.0011914 2.1998 0.001582 3.2998 0.0011914 c0.074394 0.00039062 0.14879 -0.0066016 0.222 -0.020996 c0.03 -0.0066016 0.05461 -0.042206 0.097208 -0.0792 z M102.73899999999999 19.2754 c0.12939 0.021796 0.2608 0.02541 0.4164 0.039218 c0.15961 0.12359 0.2224 0.3352 0.15621 0.5258 c-0.073808 0.13721 -0.21942 0.22022 -0.37502 0.21362 c-0.2802 0.0046094 -0.56058 0.003418 -0.84138 0.0030274 c-0.2056 0 -0.411 -0.0053906 -0.6166 -0.0047852 c-0.6762 0.0032032 -1.34 -0.18141 -1.9176 -0.533 c-0.2058 -0.13 -0.3864 -0.2962 -0.53282 -0.49058 c-0.2682 -0.3354 -0.5302 -0.6752 -0.7692 -1.0332 c-0.2902 -0.435 -0.60298 -0.8546 -0.90058 -1.2842 c-0.19141 -0.2762 -0.3746 -0.5578 -0.5588 -0.83898 c-0.1434 -0.2186 -0.2808 -0.4416 -0.4232 -0.6604 c-0.2542 -0.3916 -0.5096 -0.7826 -0.766 -1.1728 c-0.071406 -0.10859 -0.1498 -0.2126 -0.2238 -0.3172 c-0.219 -0.059804 -0.4464 -0.082598 -0.673 -0.067794 c-0.1852 -0.028594 -0.3744 -0.01459 -0.5534 0.040606 c-0.015996 0.0064062 -0.027794 0.023204 -0.050196 0.042012 c-0.019199 0.048398 -0.032598 0.098788 -0.039804 0.15039 c-0.0082032 0.2052 -0.010195 0.41058 -0.011992 0.6162 c-0.010801 1.308 -0.020996 2.6158 -0.0308 3.9232 c-0.013203 0.2294 0.00080078 0.4596 0.041992 0.68558 c0.081192 0.14539 0.2286 0.24138 0.3942 0.25678 c0.11039 0.010391 0.22158 0.010781 0.3138 0.014785 c0.13961 0.1118 0.1866 0.3034 0.1148 0.467 c-0.041796 0.06539 -0.1118 0.1076 -0.1892 0.114 c-0.2228 0.020996 -0.4458 0.044004 -0.6686 0.063204 c-0.074394 0.0067968 -0.149 0.0067968 -0.2234 0 c-0.7254 -0.068204 -1.454 -0.092402 -2.1824 -0.072402 c-0.2242 0.0032032 -0.4484 0.0043946 -0.673 -0.0016016 c-0.057794 -0.012598 -0.11318 -0.034004 -0.16459 -0.063204 c-0.0093946 -0.072402 -0.013789 -0.14561 -0.013184 -0.21862 c0.0075976 -0.11561 0.082988 -0.21542 0.19199 -0.25442 c0.1198 -0.04961 0.2472 -0.081406 0.368 -0.12961 c0.10641 -0.042794 0.18301 -0.1376 0.20282 -0.2506 c0.010996 -0.055 0.017988 -0.11061 0.020996 -0.1666 c0.0258 -0.3348 0.056602 -0.6696 0.073398 -1.005 c0.010391 -0.16779 0.0043946 -0.3362 -0.017813 -0.5028 c-0.030606 -0.241 -0.043808 -0.48378 -0.039414 -0.72658 c0 -1.7376 0.00060546 -3.4752 0.0017969 -5.213 c0 -0.2984 0.026796 -0.5968 0.042188 -0.895 c0.0046094 -0.093204 0.017207 -0.18641 0.018008 -0.2796 c0.007793 -0.8218 0.011602 -1.644 0.020996 -2.4658 c0.0032032 -0.262 -0.037988 -0.5226 -0.12219 -0.7706 c-0.026406 -0.053808 -0.059004 -0.1042 -0.097208 -0.15039 l-0.5794 -0.1682 c-0.126 -0.15619 -0.114 -0.38218 0.027988 -0.52418 c0.384 -0.074004 0.7744 -0.1092 1.1654 -0.105 c1.3798 0.1126 2.7632 0.047794 4.1446 0.088184 c0.56 0.018398 1.1158 0.10439 1.6552 0.2562 c0.4714 0.1234 0.9154 0.334 1.309 0.6208 c0.2242 0.1682 0.448 0.3366 0.66762 0.5098 c0.5274 0.4276 0.8906 1.0248 1.0276 1.6898 c0.047402 0.19961 0.085196 0.4022 0.11379 0.6054 c0.036192 0.2406 0.034394 0.4856 -0.0052148 0.7256 c-0.025196 0.1474 -0.0408 0.296 -0.070996 0.4418 c-0.0208 0.1284 -0.055996 0.2542 -0.1052 0.3748 c-0.18381 0.3896 -0.444 0.73842 -0.7652 1.0256 c-0.1376 0.12619 -0.2918 0.23298 -0.44 0.34658 c-0.3068 0.2478 -0.6726 0.4118 -1.0618 0.4762 c-0.1542 0.011797 -0.3012 0.070996 -0.42058 0.16939 c0.0024024 0.05039 0.014004 0.099786 0.034004 0.14598 c0.7518 1.115 1.5054 2.2288 2.261 3.3414 c0.15699 0.2314 0.3154 0.4642 0.4662 0.6994 c0.302 0.4498 0.62878 0.88282 0.9784 1.2966 c0.1134 0.1502 0.2766 0.2552 0.4602 0.2968 c0.14539 0.031192 0.2886 0.075196 0.435 0.10039 z M94.4198 6.864000000000001 c-0.085196 0.00039062 -0.16557 0.04 -0.21796 0.1074 c-0.014609 0.081992 -0.024414 0.165 -0.029414 0.2482 c-0.007207 0.4672 -0.011816 0.93442 -0.013613 1.4014 c-0.002793 0.7662 0 1.5324 -0.0064062 2.2986 c0.00060546 0.2616 -0.018789 0.5228 -0.057988 0.78138 c-0.045996 0.3148 -0.053788 0.6338 -0.023398 0.9504 c0.014395 0.053398 0.037794 0.104 0.068984 0.14961 c0.061192 0.0038086 0.11559 0.010605 0.16979 0.0098046 c0.2792 -0.021992 0.5594 -0.025196 0.839 -0.0098046 c0.2788 0.025996 0.5596 0.01959 0.83682 -0.019004 c0.902 -0.058594 1.6858 -0.64058 2.003 -1.487 c0.11439 -0.2962 0.19119 -0.60558 0.2286 -0.92098 c0.14881 -0.7816 -0.040996 -1.5896 -0.522 -2.2234 c-0.022598 -0.02961 -0.043788 -0.060606 -0.065196 -0.090996 c-0.318 -0.4436 -0.76262 -0.7808 -1.2756 -0.9674 c-0.4452 -0.14039 -0.9076 -0.2184 -1.3742 -0.2314 c-0.1868 -0.0093946 -0.37378 -0.0083984 -0.5604 0.0032032 z M112.6923 11.4336 c0.052794 -0.1642 0.088516 -0.32738 0.13531 -0.5004 c0.11359 -0.097208 0.27 -0.1276 0.4118 -0.080196 c0.11359 0.022402 0.201 0.11279 0.2198 0.227 c0.015391 0.1108 0.023184 0.2224 0.023184 0.3344 c0.004004 0.392 0.0067968 0.7842 0.0048046 1.1762 c-0.0030078 0.617 -0.0086132 1.2332 -0.017012 1.849 c-0.004004 0.0742 -0.013809 0.14801 -0.029414 0.2206 c-0.023204 0.093204 -0.1052 0.16 -0.201 0.16359 c-0.13961 0.018809 -0.2798 -0.0292 -0.37862 -0.1292 c-0.0308 -0.12279 -0.057598 -0.26958 -0.1052 -0.4096 c-0.05 -0.14061 -0.1092 -0.278 -0.17699 -0.4108 c-0.058008 -0.1168 -0.12301 -0.2298 -0.19461 -0.33862 c-0.13279 -0.207 -0.3444 -0.3508 -0.5858 -0.398 c-0.1626 -0.041796 -0.3284 -0.07 -0.4956 -0.0842 c-0.7092 -0.0358 -1.419 -0.03461 -2.1288 -0.02461 c-0.096406 -0.011406 -0.19221 0.025 -0.25702 0.097208 c-0.040606 0.1016 -0.0542 0.2122 -0.0392 0.3206 c-0.0009961 0.9152 -0.0009961 1.8304 0 2.7454 c0 0.8404 0.00080078 1.6808 0.0024024 2.5214 c0 0.13039 0.011602 0.2612 0.022598 0.3912 c0.0051954 0.0558 0.016992 0.1108 0.03459 0.164 c0.025996 0.090996 0.084804 0.1692 0.1652 0.2192 c0.1566 0.1034 0.3382 0.1624 0.5256 0.1708 c0.11221 0 0.2242 0.0033984 0.3366 0.002207 c0.8592 -0.0096094 1.7182 -0.021016 2.5774 -0.028808 c0.2984 -0.014004 0.595 -0.054394 0.8864 -0.12059 c0.2402 -0.049004 0.4594 -0.1718 0.62638 -0.3512 c0.16061 -0.1568 0.2966 -0.3368 0.4036 -0.5342 c0.0842 -0.1658 0.1708 -0.3314 0.258 -0.5004 c0.16721 -0.10039 0.3796 -0.085586 0.53122 0.037422 c0.004004 0.055196 0.004004 0.1108 0 0.166 c-0.066602 0.4428 -0.136 0.885 -0.204 1.3274 c-0.0061914 0.12461 -0.068984 0.2396 -0.17059 0.3122 c-0.098008 0.010605 -0.2264 0.03 -0.3554 0.036602 c-0.3538 0.018594 -0.70702 0.0292 -1.0608 0.066796 c-0.3906 0.039804 -0.7842 0.036796 -1.1742 -0.009004 c-0.2034 -0.022794 -0.409 -0.033788 -0.6138 -0.036992 c-1.1018 -0.017598 -2.2036 -0.035 -3.3056 -0.04461 c-0.859 -0.007207 -1.7184 -0.002207 -2.5776 -0.0052148 c-0.149 0 -0.29782 -0.011406 -0.44662 -0.021016 c-0.0742 -0.016406 -0.1318 -0.075 -0.14719 -0.14939 c-0.028204 -0.1266 -0.015996 -0.259 0.035196 -0.3784 c0.050606 -0.057598 0.12201 -0.092208 0.19842 -0.096406 c0.14881 -0.012207 0.2998 -0.013203 0.446 -0.03961 c0.17 -0.027402 0.3144 -0.139 0.384 -0.2964 c0.084004 -0.1676 0.13141 -0.3512 0.1392 -0.5384 c0.013008 -0.7844 0.031016 -1.5686 0.039218 -2.3528 c0.0082032 -0.803 -0.016191 -1.6072 0.017813 -2.4088 c0.023808 -0.56 0.042012 -1.1192 0.038008 -1.679 c-0.0009961 -0.2046 -0.02959 -0.4088 -0.039394 -0.61342 c-0.02 -0.4102 -0.048594 -0.8202 -0.050586 -1.2308 c-0.0035938 -0.7842 0.01041 -1.5686 0.013809 -2.3532 c0.0038086 -0.18641 -0.0031836 -0.373 -0.021192 -0.55862 c-0.015391 -0.2532 -0.20638 -0.4606 -0.45738 -0.4968 c-0.109 -0.025 -0.2194 -0.044394 -0.33 -0.063204 c-0.11039 -0.018594 -0.2188 -0.035196 -0.31978 -0.051192 c-0.104 -0.1432 -0.12301 -0.33122 -0.049804 -0.4922 c0.043398 -0.028808 0.090996 -0.0508 0.141 -0.065196 c0.12961 -0.016992 0.26 -0.025996 0.3906 -0.026602 c0.5418 -0.0016016 1.0836 0.0025976 1.6252 0.0024024 c0.9338 0 1.8676 -0.00080078 2.8014 -0.0025976 c0.037402 0 0.074804 -0.0014063 0.11221 0 c1.2698 0.0056054 2.5398 0.011602 3.8096 0.018008 c0.074394 -0.0014063 0.14879 0.0071876 0.22078 0.02539 c0.053398 0.024004 0.10301 0.055606 0.14721 0.093614 c0.019805 0.087792 0.045196 0.17719 0.059804 0.26838 c0.079004 0.4972 0.15621 0.9948 0.2314 1.4932 c0.00039062 0.036992 -0.004004 0.073984 -0.013203 0.10998 c-0.017793 0.073594 -0.072402 0.13279 -0.14439 0.15639 c-0.13359 0.043204 -0.2794 0.026406 -0.3996 -0.046386 c-0.10881 -0.2314 -0.2162 -0.49 -0.348 -0.7346 c-0.18699 -0.371 -0.50138 -0.66218 -0.8854 -0.8202 c-0.049804 -0.0258 -0.1026 -0.044804 -0.1574 -0.057012 c-0.3112 -0.061406 -0.626 -0.10441 -0.9424 -0.12861 c-0.8412 0 -1.681 0 -2.5214 0.0019922 c-0.12859 -0.012793 -0.2584 0.0056054 -0.3784 0.054004 c-0.062598 0.045996 -0.096192 0.12139 -0.088594 0.19859 c-0.0067968 0.7282 -0.016602 1.4566 -0.017402 2.185 c0 0.99 0.0051954 1.9796 0.0071876 2.9696 c-0.010391 0.2228 0.0016016 0.446 0.0358 0.66638 c0.049394 0.031192 0.10359 0.053594 0.16059 0.065996 c0.673 -0.002207 1.3446 -0.0030078 2.0166 -0.019805 c0.2422 -0.013809 0.4834 -0.041816 0.7222 -0.084218 c0.285 -0.032598 0.5322 -0.2118 0.65202 -0.4724 c0.085196 -0.18641 0.15859 -0.3782 0.2192 -0.5742 z M124.86551999999999 19.6826 c0 -0.053398 0.012539 -0.10789 0.022148 -0.17709 c0.12061 -0.1134 0.2764 -0.1818 0.4416 -0.19379 c0.1592 -0.026406 0.2994 -0.12021 0.3846 -0.25742 c0.02 -0.1002 0.032794 -0.2018 0.038594 -0.3038 c0.0016016 -0.654 -0.0033984 -1.3078 -0.0051954 -1.9616 c-0.00080078 -0.299 -0.00019531 -0.59782 0.0016016 -0.89662 c0.0048046 -0.673 0.016406 -1.346 0.015801 -2.0176 c0 -1.1398 -0.011797 -2.2794 0.024804 -3.4188 c0.0035938 -0.1118 0.012793 -0.2236 0.023984 -0.335 c0.020606 -0.2046 0.015801 -0.4108 -0.01459 -0.6142 c-0.073204 -0.5 -0.074394 -1.008 -0.0033984 -1.5082 c0.04461 -0.3624 0.018008 -0.7302 -0.078184 -1.0824 c-0.17939 -0.2472 -0.4444 -0.21602 -0.6778 -0.27762 c-0.096406 -0.135 -0.114 -0.3112 -0.046212 -0.4626 c0.062402 -0.0758 0.1574 -0.11721 0.25542 -0.11121 c0.2802 -0.0024024 0.56058 -0.0074024 0.8412 0.0019922 c0.8594 0.0292 1.719 0.03459 2.5782 0.010996 c0.2236 -0.0061914 0.4478 -0.022598 0.6696 -0.05 c0.296 -0.043204 0.5968 -0.041796 0.8924 0.0041992 c0.073204 0.015195 0.1474 0.025 0.2218 0.02961 c0.5414 0.017402 1.0794 0.074394 1.6194 0.1224 c0.6508 0.055606 1.2914 0.19701 1.905 0.4206 c0.64 0.2082 1.242 0.5184 1.783 0.9184 c0.12061 0.088594 0.2472 0.16898 0.37862 0.24058 c0.3868 0.231 0.7148 0.5484 0.9584 0.9274 c0.3904 0.5936 0.7192 1.2254 0.981 1.8858 c0.1574 0.3808 0.2438 0.787 0.255 1.1988 c0.0019922 0.1682 0.015 0.33622 0.038594 0.50262 c0.07 0.481 0.072794 0.9694 0.0085938 1.4512 c-0.012402 0.092598 -0.020996 0.186 -0.024394 0.279 c-0.023008 0.411 -0.1066 0.8162 -0.2478 1.2028 c-0.11381 0.3366 -0.2348 0.67 -0.3664 0.9992 c-0.1792 0.4738 -0.461 0.90202 -0.8252 1.2538 c-0.3266 0.3074 -0.6474 0.6192 -1 0.8986 c-0.5468 0.4242 -1.1562 0.7608 -1.8064 0.9978 c-0.5578 0.2146 -1.1336 0.37942 -1.7204 0.49282 c-0.402 0.08539 -0.8104 0.13779 -1.221 0.15699 c-0.3724 0.0088086 -0.7436 0.063204 -1.1164 0.08041 c-0.8962 0.043204 -1.7932 0.029004 -2.69 0.0067968 c-0.2232 -0.0056054 -0.4454 -0.04541 -0.66862 -0.057618 c-0.373 -0.020996 -0.7464 -0.032598 -1.1196 -0.046406 c-0.14939 -0.0056054 -0.2994 0 -0.4482 -0.011191 c-0.076406 0.00080078 -0.1492 -0.031992 -0.1992 -0.089786 c-0.05 -0.057598 -0.071992 -0.13439 -0.06039 -0.20978 z M128.4853 6.441000000000001 c-0.042402 0.0067968 -0.083964 0.018926 -0.12377 0.035918 c-0.065996 0.083594 -0.10039 0.18779 -0.097598 0.2944 c-0.012402 0.3174 -0.02961 0.6346 -0.030214 0.95182 c-0.0032032 1.457 -0.0032032 2.914 0 4.371 c0.0019922 1.2704 0.0073828 2.5406 0.016191 3.8108 c0.0024024 0.3366 0.0308 0.6714 0.041992 1.007 c0.0046094 0.13 -0.0033984 0.2604 -0.0069922 0.3904 c-0.011992 0.448 -0.023398 0.8958 -0.037598 1.3438 c0 0.18721 0.032598 0.37282 0.096796 0.5488 c0.051406 0.2062 0.23442 0.3526 0.44702 0.3574 c0.037402 0.002793 0.07461 0.003789 0.11201 0.0025976 c0.6906 -0.0016016 1.3808 -0.039804 2.0676 -0.1142 c0.4806 -0.066602 0.9506 -0.1958 1.3978 -0.3842 c0.6286 -0.2898 1.2148 -0.66362 1.7424 -1.1114 c0.191 -0.151 0.3576 -0.3306 0.4936 -0.5326 c0.181 -0.2612 0.3328 -0.54158 0.4526 -0.83578 c0.1052 -0.2798 0.217 -0.5568 0.3192 -0.83718 c0.326 -0.877 0.4862 -1.807 0.47238 -2.7424 c-0.013008 -0.3168 -0.042812 -0.6328 -0.089218 -0.94638 c-0.07539 -0.517 -0.17799 -1.0294 -0.3078 -1.5354 c-0.11939 -0.4716 -0.3212 -0.9184 -0.59638 -1.3196 c-0.14301 -0.2186 -0.28182 -0.4402 -0.42362 -0.6598 c-0.050606 -0.078398 -0.1 -0.15779 -0.1566 -0.2312 c-0.551 -0.7224 -1.3072 -1.1552 -2.125 -1.4994 c-0.053008 -0.018594 -0.1074 -0.032794 -0.1626 -0.041992 c-0.4702 -0.12 -0.95058 -0.19539 -1.4348 -0.22558 c-0.1308 -0.002207 -0.2614 -0.011816 -0.39102 -0.029414 c-0.556 -0.067206 -1.1166 -0.089804 -1.6764 -0.067402 z M148.2598 11.4336 c0.052794 -0.1642 0.088516 -0.32738 0.13531 -0.5004 c0.11359 -0.097208 0.27 -0.1276 0.4118 -0.080196 c0.11359 0.022402 0.201 0.11279 0.2198 0.227 c0.015391 0.1108 0.023184 0.2224 0.023184 0.3344 c0.004004 0.392 0.0067968 0.7842 0.0048046 1.1762 c-0.0030078 0.617 -0.0086132 1.2332 -0.017012 1.849 c-0.004004 0.0742 -0.013809 0.14801 -0.029414 0.2206 c-0.023204 0.093204 -0.1052 0.16 -0.201 0.16359 c-0.13961 0.018809 -0.2798 -0.0292 -0.37862 -0.1292 c-0.0308 -0.12279 -0.057598 -0.26958 -0.1052 -0.4096 c-0.05 -0.14061 -0.1092 -0.278 -0.17699 -0.4108 c-0.058008 -0.1168 -0.12301 -0.2298 -0.19461 -0.33862 c-0.13279 -0.207 -0.3444 -0.3508 -0.5858 -0.398 c-0.1626 -0.041796 -0.3284 -0.07 -0.4956 -0.0842 c-0.7092 -0.0358 -1.419 -0.03461 -2.1288 -0.02461 c-0.096406 -0.011406 -0.19221 0.025 -0.25702 0.097208 c-0.040606 0.1016 -0.0542 0.2122 -0.0392 0.3206 c-0.0009961 0.9152 -0.0009961 1.8304 0 2.7454 c0 0.8404 0.00080078 1.6808 0.0024024 2.5214 c0 0.13039 0.011602 0.2612 0.022598 0.3912 c0.0051954 0.0558 0.016992 0.1108 0.03459 0.164 c0.025996 0.090996 0.084804 0.1692 0.1652 0.2192 c0.1566 0.1034 0.3382 0.1624 0.5256 0.1708 c0.11221 0 0.2242 0.0033984 0.3366 0.002207 c0.8592 -0.0096094 1.7182 -0.021016 2.5774 -0.028808 c0.2984 -0.014004 0.595 -0.054394 0.8864 -0.12059 c0.2402 -0.049004 0.4594 -0.1718 0.62638 -0.3512 c0.16061 -0.1568 0.2966 -0.3368 0.4036 -0.5342 c0.0842 -0.1658 0.1708 -0.3314 0.258 -0.5004 c0.16721 -0.10039 0.3796 -0.085586 0.53122 0.037422 c0.004004 0.055196 0.004004 0.1108 0 0.166 c-0.066602 0.4428 -0.136 0.885 -0.204 1.3274 c-0.0061914 0.12461 -0.068984 0.2396 -0.17059 0.3122 c-0.098008 0.010605 -0.2264 0.03 -0.3554 0.036602 c-0.3538 0.018594 -0.70702 0.0292 -1.0608 0.066796 c-0.3906 0.039804 -0.7842 0.036796 -1.1742 -0.009004 c-0.2034 -0.022794 -0.409 -0.033788 -0.6138 -0.036992 c-1.1018 -0.017598 -2.2036 -0.035 -3.3056 -0.04461 c-0.859 -0.007207 -1.7184 -0.002207 -2.5776 -0.0052148 c-0.149 0 -0.29782 -0.011406 -0.44662 -0.021016 c-0.0742 -0.016406 -0.1318 -0.075 -0.14719 -0.14939 c-0.028204 -0.1266 -0.015996 -0.259 0.035196 -0.3784 c0.050606 -0.057598 0.12201 -0.092208 0.19842 -0.096406 c0.14881 -0.012207 0.2998 -0.013203 0.446 -0.03961 c0.17 -0.027402 0.3144 -0.139 0.384 -0.2964 c0.084004 -0.1676 0.13141 -0.3512 0.1392 -0.5384 c0.013008 -0.7844 0.031016 -1.5686 0.039218 -2.3528 c0.0082032 -0.803 -0.016191 -1.6072 0.017813 -2.4088 c0.023808 -0.56 0.042012 -1.1192 0.038008 -1.679 c-0.0009961 -0.2046 -0.02959 -0.4088 -0.039394 -0.61342 c-0.02 -0.4102 -0.048594 -0.8202 -0.050586 -1.2308 c-0.0035938 -0.7842 0.01041 -1.5686 0.013809 -2.3532 c0.0038086 -0.18641 -0.0031836 -0.373 -0.021192 -0.55862 c-0.015391 -0.2532 -0.20638 -0.4606 -0.45738 -0.4968 c-0.109 -0.025 -0.2194 -0.044394 -0.33 -0.063204 c-0.11039 -0.018594 -0.2188 -0.035196 -0.31978 -0.051192 c-0.104 -0.1432 -0.12301 -0.33122 -0.049804 -0.4922 c0.043398 -0.028808 0.090996 -0.0508 0.141 -0.065196 c0.12961 -0.016992 0.26 -0.025996 0.3906 -0.026602 c0.5418 -0.0016016 1.0836 0.0025976 1.6252 0.0024024 c0.9338 0 1.8676 -0.00080078 2.8014 -0.0025976 c0.037402 0 0.074804 -0.0014063 0.11221 0 c1.2698 0.0056054 2.5398 0.011602 3.8096 0.018008 c0.074394 -0.0014063 0.14879 0.0071876 0.22078 0.02539 c0.053398 0.024004 0.10301 0.055606 0.14721 0.093614 c0.019805 0.087792 0.045196 0.17719 0.059804 0.26838 c0.079004 0.4972 0.15621 0.9948 0.2314 1.4932 c0.00039062 0.036992 -0.004004 0.073984 -0.013203 0.10998 c-0.017793 0.073594 -0.072402 0.13279 -0.14439 0.15639 c-0.13359 0.043204 -0.2794 0.026406 -0.3996 -0.046386 c-0.10881 -0.2314 -0.2162 -0.49 -0.348 -0.7346 c-0.18699 -0.371 -0.50138 -0.66218 -0.8854 -0.8202 c-0.049804 -0.0258 -0.1026 -0.044804 -0.1574 -0.057012 c-0.3112 -0.061406 -0.626 -0.10441 -0.9424 -0.12861 c-0.8412 0 -1.681 0 -2.5214 0.0019922 c-0.12859 -0.012793 -0.2584 0.0056054 -0.3784 0.054004 c-0.062598 0.045996 -0.096192 0.12139 -0.088594 0.19859 c-0.0067968 0.7282 -0.016602 1.4566 -0.017402 2.185 c0 0.99 0.0051954 1.9796 0.0071876 2.9696 c-0.010391 0.2228 0.0016016 0.446 0.0358 0.66638 c0.049394 0.031192 0.10359 0.053594 0.16059 0.065996 c0.673 -0.002207 1.3446 -0.0030078 2.0166 -0.019805 c0.2422 -0.013809 0.4834 -0.041816 0.7222 -0.084218 c0.285 -0.032598 0.5322 -0.2118 0.65202 -0.4724 c0.085196 -0.18641 0.15859 -0.3782 0.2192 -0.5742 z M160.2099 15.9442 c0.031992 0.10779 0.097442 0.20264 0.18664 0.27104 c0.029004 -0.017598 0.067206 -0.028788 0.0842 -0.053984 c0.030996 -0.046406 0.05539 -0.096796 0.072794 -0.15 c0.18061 -0.5304 0.3954 -1.0486 0.64282 -1.5514 c0.275 -0.5932 0.5108 -1.204 0.7062 -1.828 c0.4776 -1.4366 1.0276 -2.845 1.5952 -4.2482 c0.097792 -0.242 0.1868 -0.4886 0.264 -0.73798 c0.034804 -0.12561 0.053398 -0.25522 0.055196 -0.3856 c0.0033984 -0.2534 -0.18359 -0.4692 -0.435 -0.5014 c-0.092598 -0.012598 -0.186 -0.018203 -0.27958 -0.016797 c-0.1866 0 -0.3732 0.009004 -0.5602 0.01 c-0.085196 0.012402 -0.171 -0.017598 -0.2298 -0.080606 s-0.082812 -0.1508 -0.06461 -0.2348 c0.007207 -0.073808 0.024004 -0.14641 0.049804 -0.2158 c0.024804 -0.072598 0.086796 -0.12619 0.16219 -0.1402 c0.091602 -0.016406 0.18461 -0.024004 0.27782 -0.023008 c0.3924 0 0.7846 0.0088086 1.1778 0.0082032 c0.5794 0 1.1586 -0.0074024 1.738 -0.0091992 c0.13061 0 0.2614 0.0043946 0.3918 0.012402 c0.11561 0.01 0.2092 0.098204 0.2262 0.2132 c0.038204 0.14641 0.0054102 0.3022 -0.088788 0.4206 c-0.11461 0.063594 -0.243 0.098398 -0.374 0.10141 c-0.2018 0.047794 -0.3816 0.1618 -0.511 0.32378 c-0.058398 0.072794 -0.1118 0.1492 -0.1602 0.229 c-0.311 0.4888 -0.5718 1.0078 -0.7782 1.5492 c-0.1734 0.4532 -0.3634 0.9002 -0.5486 1.349 c-0.12801 0.3108 -0.26282 0.6186 -0.3906 0.9294 c-0.227 0.5528 -0.45238 1.1066 -0.67578 1.6616 c-0.11141 0.2772 -0.21862 0.55622 -0.3196 0.8372 c-0.265 0.7388 -0.5726 1.4604 -0.8746 2.1842 c-0.273 0.655 -0.54262 1.3114 -0.80862 1.9692 c-0.098204 0.2422 -0.18721 0.488 -0.2748 0.73442 c-0.17 0.4748 -0.3726 0.9374 -0.606 1.3846 c-0.024004 0.036602 -0.051212 0.071212 -0.081016 0.1032 c-0.17961 0.070196 -0.3774 0.077598 -0.5618 0.021192 c-0.041992 -0.04461 -0.077988 -0.066816 -0.091796 -0.098008 c-0.3754 -0.8554 -0.7494 -1.7106 -1.1216 -2.5658 c-0.3112 -0.72 -0.6162 -1.4426 -0.9228 -2.1646 c-0.4962 -1.1688 -0.9884 -2.3398 -1.4886 -3.5066 c-0.3242 -0.7552 -0.6638 -1.5038 -0.9932 -2.2564 c-0.195 -0.4448 -0.382 -0.893 -0.5766 -1.338 c-0.14641 -0.344 -0.3208 -0.6752 -0.5212 -0.9908 c-0.12221 -0.2376 -0.3584 -0.3954 -0.6248 -0.41738 c-0.018594 -0.0019922 -0.036992 -0.005996 -0.05459 -0.012188 c-0.073808 -0.018594 -0.13561 -0.068788 -0.169 -0.13719 c-0.033204 -0.068398 -0.03461 -0.14801 -0.0038086 -0.21762 c0.028808 -0.080196 0.062012 -0.159 0.099004 -0.2358 c0.15721 -0.119 0.3508 -0.17961 0.5478 -0.17141 c0.392 -0.015391 0.7846 -0.0083984 1.1758 0.020996 c0.7066 0.068398 1.4166 0.093594 2.126 0.0758 c0.2802 -0.002793 0.56058 -0.0013867 0.84138 0.0088086 c0.067206 0.011992 0.1324 0.03459 0.19279 0.066582 c0.065 0.16301 0.071602 0.3434 0.018594 0.5106 l-0.098398 0.093808 c-0.13061 0.010605 -0.2798 0.014609 -0.4266 0.03541 c-0.4404 0.063204 -0.57158 0.19041 -0.46078 0.68942 c0.023398 0.090196 0.0542 0.1784 0.091796 0.2638 c0.4628 1.1422 0.921 2.2866 1.3944 3.4248 c0.2868 0.6896 0.6026 1.367 0.897 2.0536 c0.2208 0.515 0.4252 1.0366 0.6432 1.5528 c0.1682 0.3956 0.3414 0.788 0.5182 1.1794 z M175.6048 11.4336 c0.052794 -0.1642 0.088516 -0.32738 0.13531 -0.5004 c0.11359 -0.097208 0.27 -0.1276 0.4118 -0.080196 c0.11359 0.022402 0.201 0.11279 0.2198 0.227 c0.015391 0.1108 0.023184 0.2224 0.023184 0.3344 c0.004004 0.392 0.0067968 0.7842 0.0048046 1.1762 c-0.0030078 0.617 -0.0086132 1.2332 -0.017012 1.849 c-0.004004 0.0742 -0.013809 0.14801 -0.029414 0.2206 c-0.023204 0.093204 -0.1052 0.16 -0.201 0.16359 c-0.13961 0.018809 -0.2798 -0.0292 -0.37862 -0.1292 c-0.0308 -0.12279 -0.057598 -0.26958 -0.1052 -0.4096 c-0.05 -0.14061 -0.1092 -0.278 -0.17699 -0.4108 c-0.058008 -0.1168 -0.12301 -0.2298 -0.19461 -0.33862 c-0.13279 -0.207 -0.3444 -0.3508 -0.5858 -0.398 c-0.1626 -0.041796 -0.3284 -0.07 -0.4956 -0.0842 c-0.7092 -0.0358 -1.419 -0.03461 -2.1288 -0.02461 c-0.096406 -0.011406 -0.19221 0.025 -0.25702 0.097208 c-0.040606 0.1016 -0.0542 0.2122 -0.0392 0.3206 c-0.0009961 0.9152 -0.0009961 1.8304 0 2.7454 c0 0.8404 0.00080078 1.6808 0.0024024 2.5214 c0 0.13039 0.011602 0.2612 0.022598 0.3912 c0.0051954 0.0558 0.016992 0.1108 0.03459 0.164 c0.025996 0.090996 0.084804 0.1692 0.1652 0.2192 c0.1566 0.1034 0.3382 0.1624 0.5256 0.1708 c0.11221 0 0.2242 0.0033984 0.3366 0.002207 c0.8592 -0.0096094 1.7182 -0.021016 2.5774 -0.028808 c0.2984 -0.014004 0.595 -0.054394 0.8864 -0.12059 c0.2402 -0.049004 0.4594 -0.1718 0.62638 -0.3512 c0.16061 -0.1568 0.2966 -0.3368 0.4036 -0.5342 c0.0842 -0.1658 0.1708 -0.3314 0.258 -0.5004 c0.16721 -0.10039 0.3796 -0.085586 0.53122 0.037422 c0.004004 0.055196 0.004004 0.1108 0 0.166 c-0.066602 0.4428 -0.136 0.885 -0.204 1.3274 c-0.0061914 0.12461 -0.068984 0.2396 -0.17059 0.3122 c-0.098008 0.010605 -0.2264 0.03 -0.3554 0.036602 c-0.3538 0.018594 -0.70702 0.0292 -1.0608 0.066796 c-0.3906 0.039804 -0.7842 0.036796 -1.1742 -0.009004 c-0.2034 -0.022794 -0.409 -0.033788 -0.6138 -0.036992 c-1.1018 -0.017598 -2.2036 -0.035 -3.3056 -0.04461 c-0.859 -0.007207 -1.7184 -0.002207 -2.5776 -0.0052148 c-0.149 0 -0.29782 -0.011406 -0.44662 -0.021016 c-0.0742 -0.016406 -0.1318 -0.075 -0.14719 -0.14939 c-0.028204 -0.1266 -0.015996 -0.259 0.035196 -0.3784 c0.050606 -0.057598 0.12201 -0.092208 0.19842 -0.096406 c0.14881 -0.012207 0.2998 -0.013203 0.446 -0.03961 c0.17 -0.027402 0.3144 -0.139 0.384 -0.2964 c0.084004 -0.1676 0.13141 -0.3512 0.1392 -0.5384 c0.013008 -0.7844 0.031016 -1.5686 0.039218 -2.3528 c0.0082032 -0.803 -0.016191 -1.6072 0.017813 -2.4088 c0.023808 -0.56 0.042012 -1.1192 0.038008 -1.679 c-0.0009961 -0.2046 -0.02959 -0.4088 -0.039394 -0.61342 c-0.02 -0.4102 -0.048594 -0.8202 -0.050586 -1.2308 c-0.0035938 -0.7842 0.01041 -1.5686 0.013809 -2.3532 c0.0038086 -0.18641 -0.0031836 -0.373 -0.021192 -0.55862 c-0.015391 -0.2532 -0.20638 -0.4606 -0.45738 -0.4968 c-0.109 -0.025 -0.2194 -0.044394 -0.33 -0.063204 c-0.11039 -0.018594 -0.2188 -0.035196 -0.31978 -0.051192 c-0.104 -0.1432 -0.12301 -0.33122 -0.049804 -0.4922 c0.043398 -0.028808 0.090996 -0.0508 0.141 -0.065196 c0.12961 -0.016992 0.26 -0.025996 0.3906 -0.026602 c0.5418 -0.0016016 1.0836 0.0025976 1.6252 0.0024024 c0.9338 0 1.8676 -0.00080078 2.8014 -0.0025976 c0.037402 0 0.074804 -0.0014063 0.11221 0 c1.2698 0.0056054 2.5398 0.011602 3.8096 0.018008 c0.074394 -0.0014063 0.14879 0.0071876 0.22078 0.02539 c0.053398 0.024004 0.10301 0.055606 0.14721 0.093614 c0.019805 0.087792 0.045196 0.17719 0.059804 0.26838 c0.079004 0.4972 0.15621 0.9948 0.2314 1.4932 c0.00039062 0.036992 -0.004004 0.073984 -0.013203 0.10998 c-0.017793 0.073594 -0.072402 0.13279 -0.14439 0.15639 c-0.13359 0.043204 -0.2794 0.026406 -0.3996 -0.046386 c-0.10881 -0.2314 -0.2162 -0.49 -0.348 -0.7346 c-0.18699 -0.371 -0.50138 -0.66218 -0.8854 -0.8202 c-0.049804 -0.0258 -0.1026 -0.044804 -0.1574 -0.057012 c-0.3112 -0.061406 -0.626 -0.10441 -0.9424 -0.12861 c-0.8412 0 -1.681 0 -2.5214 0.0019922 c-0.12859 -0.012793 -0.2584 0.0056054 -0.3784 0.054004 c-0.062598 0.045996 -0.096192 0.12139 -0.088594 0.19859 c-0.0067968 0.7282 -0.016602 1.4566 -0.017402 2.185 c0 0.99 0.0051954 1.9796 0.0071876 2.9696 c-0.010391 0.2228 0.0016016 0.446 0.0358 0.66638 c0.049394 0.031192 0.10359 0.053594 0.16059 0.065996 c0.673 -0.002207 1.3446 -0.0030078 2.0166 -0.019805 c0.2422 -0.013809 0.4834 -0.041816 0.7222 -0.084218 c0.285 -0.032598 0.5322 -0.2118 0.65202 -0.4724 c0.085196 -0.18641 0.15859 -0.3782 0.2192 -0.5742 z M180.9502 19.985195 c-0.14461 0.0016016 -0.28296 -0.05873 -0.37996 -0.16594 c-0.046406 -0.11221 -0.031016 -0.2406 0.040782 -0.3384 c0.1208 -0.084394 0.2564 -0.1452 0.3996 -0.1792 c0.14141 -0.058204 0.2432 -0.1848 0.2692 -0.3354 c0.020196 -0.090996 0.029394 -0.1842 0.027794 -0.2772 c-0.043204 -1.4192 0.042188 -2.8372 0.030782 -4.256 c-0.017598 -0.5788 0.0035938 -1.158 0.062988 -1.7338 c0.0091992 -0.093008 0.0075976 -0.18682 -0.0048046 -0.27942 c-0.07 -0.762 -0.088008 -1.5278 -0.053808 -2.2924 c0.020996 -0.859 0.0051954 -1.7176 -0.011406 -2.576 c-0.0014063 -0.13061 -0.013398 -0.2608 -0.036192 -0.3894 c-0.0208 -0.1434 -0.1068 -0.269 -0.2328 -0.3402 l-0.4416 -0.077598 c-0.0858 -0.12779 -0.13061 -0.27898 -0.1282 -0.43298 c0.019609 -0.075996 0.078204 -0.1358 0.15359 -0.15699 c0.087598 -0.03039 0.17859 -0.05039 0.2708 -0.05959 c0.1684 -0.0098046 0.3366 -0.0033984 0.5048 -0.0048046 c0.9148 -0.007207 1.8298 -0.014609 2.7446 -0.022402 c0.1308 -0.019199 0.2642 0.0048046 0.3802 0.068204 c0.076992 0.080996 0.1266 0.18379 0.14221 0.2944 c0.026992 0.1134 -0.032012 0.22958 -0.13941 0.27458 c-0.06961 0.026192 -0.14102 0.047188 -0.21362 0.063184 c-0.154 0.02961 -0.301 0.088614 -0.43298 0.17381 c-0.12641 0.2226 -0.18941 0.476 -0.18182 0.732 c0 0.3728 0.020996 0.746 0.036602 1.1186 c0.0082032 0.18619 0.039004 0.3718 0.039004 0.5576 c0 1.699 -0.0067968 3.398 -0.005 5.097 c0 0.56 0.023008 1.1198 0.032012 1.68 c-0.0056054 0.3732 0.017793 0.7466 0.069786 1.1162 c0.02961 0.2226 0.025606 0.4484 -0.012402 0.6696 c-0.032206 0.2404 -0.055214 0.48238 -0.07662 0.72398 c-0.020996 0.14939 -0.0058008 0.3018 0.04459 0.4442 c0.065996 0.11279 0.17119 0.1976 0.2958 0.2382 c0.2646 0.097402 0.55102 0.1208 0.828 0.067402 c0.3132 -0.051406 0.6308 -0.072012 0.948 -0.061212 c0.5228 -0.0014063 1.0458 -0.0056054 1.5684 0 c0.299 -0.002207 0.596 -0.047812 0.8818 -0.13541 c0.08961 -0.025996 0.17701 -0.059004 0.2612 -0.098808 c0.3142 -0.131 0.563 -0.38218 0.69102 -0.6978 c0.063008 -0.15561 0.13781 -0.3058 0.2088 -0.4578 c0.011992 -0.017598 0.025996 -0.033594 0.041992 -0.047598 c0.11199 -0.098008 0.262 -0.14141 0.40898 -0.11801 c0.11381 0.019395 0.19941 0.1142 0.20702 0.2294 c0.0011914 0.074394 -0.0074024 0.14859 -0.025606 0.2208 c-0.13859 0.426 -0.23638 0.8644 -0.292 1.309 c-0.0069922 0.05539 -0.020996 0.10979 -0.041992 0.16178 c-0.054394 0.164 -0.1968 0.2832 -0.3678 0.308 c-0.1482 0.018008 -0.2974 0.026212 -0.4466 0.024218 c-2.3902 -0.0041992 -4.7802 -0.0098046 -7.1702 -0.016602 c-0.2986 0 -0.59718 -0.0093946 -0.89558 -0.021192 z M199.3946 20.1166 l0.0026368 0.006836 c-0.3366 -0.011191 -0.673 -0.013398 -1.0078 -0.0358 c-0.3908 -0.024804 -0.7784 -0.088204 -1.1568 -0.1892 c-0.0542 -0.014395 -0.1082 -0.029004 -0.16301 -0.042012 c-0.8888 -0.2276 -1.7216 -0.6348 -2.4472 -1.1964 c-0.1824 -0.13039 -0.3514 -0.2784 -0.5048 -0.4418 c-0.531 -0.5284 -0.955 -1.1544 -1.2488 -1.8436 c-0.176 -0.4524 -0.3116 -0.9196 -0.4054 -1.396 c-0.065 -0.2916 -0.10721 -0.588 -0.12602 -0.8864 c-0.0041992 -0.11119 -0.031992 -0.22138 -0.044786 -0.33238 c-0.019609 -0.1668 -0.046602 -0.3336 -0.05041 -0.5008 c-0.0075976 -0.3548 -0.011602 -0.7102 0 -1.0646 c0.0208 -0.4668 0.10199 -0.929 0.242 -1.3748 c0.3248 -1.1176 0.9222 -2.137 1.7388 -2.9664 c0.7314 -0.728 1.6304 -1.2656 2.6178 -1.5654 c0.587 -0.1868 1.1942 -0.3032 1.8088 -0.34702 c0.11141 -0.0080078 0.2226 -0.022618 0.3334 -0.039024 c0.3684 -0.067206 0.7458 -0.068398 1.1148 -0.0033984 c0.091406 0.018594 0.18441 0.0292 0.27782 0.031796 c0.5222 0.03039 1.0394 0.12039 1.5412 0.26818 c0.5596 0.1508 1.092 0.389 1.5774 0.7056 c0.6752 0.4372 1.2794 0.97522 1.7918 1.5952 c0.5926 0.7036 1.0038 1.5416 1.1978 2.4406 c0.1584 0.6344 0.243 1.285 0.2522 1.9388 c-0.0014063 0.018594 -0.0014063 0.037402 0 0.055996 c0.055196 0.5762 0.012988 1.1576 -0.12461 1.7198 c-0.14699 0.8096 -0.41738 1.5918 -0.8012 2.3194 c-0.203 0.4006 -0.4672 0.7672 -0.78282 1.0866 c-0.4698 0.3972 -0.9666 0.7614 -1.4868 1.09 c-0.5238 0.2884 -1.0786 0.5166 -1.6538 0.6802 c-0.5896 0.18199 -1.2022 0.27818 -1.8192 0.28598 c-0.2242 0.0024024 -0.4484 0 -0.673 0 z M195.0668 13.152999999999999 l0.00080078 -0.0010352 c0.0053906 0.1758 -0.0058008 0.5138 0.031796 0.8464 c0.054394 0.4814 0.13459 0.9604 0.2212 1.4374 c0.068204 0.4048 0.16701 0.80362 0.29582 1.1934 c0.265 0.821 0.7298 1.5636 1.3528 2.1604 c0.6346 0.6224 1.4934 0.9624 2.3822 0.9428 c0.6148 -0.0358 1.219 -0.17721 1.7858 -0.4184 c0.4846 -0.2452 0.91782 -0.5808 1.2764 -0.9884 c0.467 -0.537 0.826 -1.1588 1.0576 -1.8314 c0.3102 -0.9004 0.49798 -1.8382 0.55878 -2.7886 c0.017598 -0.2416 0.042206 -0.4836 0.057598 -0.72478 c0.015195 -0.1108 0.014199 -0.223 -0.002793 -0.3334 c-0.043398 -0.2198 -0.061796 -0.4438 -0.05459 -0.66782 c0.0038086 -0.3362 -0.038788 -0.67138 -0.12619 -0.9962 c-0.095996 -0.341 -0.17439 -0.6868 -0.2682 -1.0286 c-0.1282 -0.468 -0.3044 -0.9216 -0.5258 -1.3534 c-0.3406 -0.6246 -0.81362 -1.1672 -1.3862 -1.5896 c-0.1166 -0.093594 -0.2426 -0.17459 -0.376 -0.242 c-1.0416 -0.5116 -1.8298 -0.537 -2.8778 -0.28318 c-0.7314 0.2556 -1.411 0.5906 -1.8906 1.2326 c-0.033398 0.044804 -0.072794 0.085196 -0.10799 0.12879 c-0.238 0.2884 -0.4332 0.6096 -0.58 0.9534 c-0.072206 0.17221 -0.15102 0.3416 -0.2146 0.517 c-0.1658 0.416 -0.2982 0.8444 -0.39622 1.2814 c-0.15721 0.8416 -0.2288 1.697 -0.2138 2.5532 z M210.0894 7.090999999999999 c-0.0053906 -0.1308 -0.070722 -0.25198 -0.17732 -0.32796 l-0.5846 -0.1682 c-0.096192 -0.2792 -0.096192 -0.2792 -0.005 -0.4876 c0.13539 -0.062402 0.28578 -0.085196 0.43358 -0.06539 c0.4666 0.0033984 0.9334 0.013594 1.4002 0.020996 c0.8028 0.011406 1.6054 0.037012 2.4082 0.0010156 c0.3542 -0.015801 0.7098 -0.010996 1.0644 -0.0045898 c1.0746 0.005996 2.1138 0.3846 2.9404 1.0712 c0.3992 0.3134 0.702 0.7332 0.87318 1.211 c0.1698 0.4346 0.2906 0.88682 0.36 1.3482 c0.035996 0.2966 0.031386 0.5968 -0.013223 0.89218 c-0.056796 0.3694 -0.16299 0.7296 -0.3154 1.071 c-0.179 0.4568 -0.5092 0.8384 -0.9356 1.081 c-0.19801 0.104 -0.3864 0.2266 -0.5782 0.342 c-0.5042 0.2878 -1.0642 0.46378 -1.6424 0.5162 c-0.574 0.068594 -1.1488 0.12799 -1.7246 0.1826 c-0.204 0.019395 -0.4102 0.011992 -0.6154 0.019785 c-0.10881 -0.014199 -0.21942 0.0051954 -0.31682 0.0558 c-0.064394 0.071602 -0.092792 0.16881 -0.077402 0.2638 c-0.0080078 0.6162 -0.017012 1.2324 -0.019219 1.8486 c-0.002793 0.803 -0.0017969 1.606 0.0030078 2.4092 c0 0.18641 0.011797 0.373 0.0258 0.559 c0.015801 0.14461 0.10439 0.2708 0.235 0.3348 l0.4398 0.071602 c0.036192 0.049394 0.071192 0.076386 0.076796 0.10838 c0.015605 0.090996 0.023614 0.1832 0.023614 0.2756 c-0.0032032 0.095996 -0.068594 0.17879 -0.16119 0.20418 c-0.072206 0.017402 -0.1458 0.028008 -0.22 0.031602 c-0.5786 0.0035938 -1.1568 0.0019922 -1.736 0.005 c-0.1866 0 -0.3732 0.013203 -0.5598 0.01541 c-0.3926 0.005 -0.7846 0.007793 -1.1762 0.0081836 c-0.053594 -0.0035938 -0.1066 -0.011797 -0.15881 -0.024394 c-0.18221 -0.2018 -0.1832 -0.2902 -0.012598 -0.5962 c0.11779 -0.057402 0.2476 -0.08541 0.3786 -0.081816 c0.19439 -0.018809 0.3446 -0.1792 0.35058 -0.3744 c0.0091992 -0.092792 0.010605 -0.18639 0.012207 -0.27958 c0.020996 -1.5124 0.037402 -3.0246 0.020996 -4.5374 c-0.012598 -1.1568 -0.005 -2.3158 0 -3.4734 c0.0032032 -0.915 0.018008 -1.8298 0.021016 -2.7446 c0 -0.2608 -0.020996 -0.522 -0.037598 -0.7828 z M212.5667 12.613800000000001 c-0.016797 0.129 0.011777 0.26004 0.081172 0.37024 c0.261 0.037598 0.525 0.04959 0.7884 0.03539 c0.4114 0.01 0.8206 -0.063808 1.2026 -0.21702 c0.086602 -0.0342 0.1774 -0.058008 0.2626 -0.095214 c0.7404 -0.3016 1.287 -0.9452 1.465 -1.7246 c0.11301 -0.4726 0.16061 -0.9584 0.14201 -1.4438 c-0.010195 -0.3358 -0.067402 -0.6684 -0.1698 -0.9884 c-0.16381 -0.5596 -0.5006 -1.0528 -0.9618 -1.4092 c-0.2502 -0.1952 -0.5412 -0.3318 -0.8512 -0.3994 c-0.5692 -0.10439 -1.149 -0.1384 -1.7264 -0.1008 c-0.087792 0.0019922 -0.16779 0.050586 -0.2104 0.12738 c-0.0069922 0.2664 -0.020996 0.56442 -0.022188 0.8622 c-0.0025976 1.2132 0 2.4262 0 3.6394 c0 0.4478 -0.0019922 0.896 0 1.3438 z M228.47480000000002 11.4336 c0.052794 -0.1642 0.088516 -0.32738 0.13531 -0.5004 c0.11359 -0.097208 0.27 -0.1276 0.4118 -0.080196 c0.11359 0.022402 0.201 0.11279 0.2198 0.227 c0.015391 0.1108 0.023184 0.2224 0.023184 0.3344 c0.004004 0.392 0.0067968 0.7842 0.0048046 1.1762 c-0.0030078 0.617 -0.0086132 1.2332 -0.017012 1.849 c-0.004004 0.0742 -0.013809 0.14801 -0.029414 0.2206 c-0.023204 0.093204 -0.1052 0.16 -0.201 0.16359 c-0.13961 0.018809 -0.2798 -0.0292 -0.37862 -0.1292 c-0.0308 -0.12279 -0.057598 -0.26958 -0.1052 -0.4096 c-0.05 -0.14061 -0.1092 -0.278 -0.17699 -0.4108 c-0.058008 -0.1168 -0.12301 -0.2298 -0.19461 -0.33862 c-0.13279 -0.207 -0.3444 -0.3508 -0.5858 -0.398 c-0.1626 -0.041796 -0.3284 -0.07 -0.4956 -0.0842 c-0.7092 -0.0358 -1.419 -0.03461 -2.1288 -0.02461 c-0.096406 -0.011406 -0.19221 0.025 -0.25702 0.097208 c-0.040606 0.1016 -0.0542 0.2122 -0.0392 0.3206 c-0.0009961 0.9152 -0.0009961 1.8304 0 2.7454 c0 0.8404 0.00080078 1.6808 0.0024024 2.5214 c0 0.13039 0.011602 0.2612 0.022598 0.3912 c0.0051954 0.0558 0.016992 0.1108 0.03459 0.164 c0.025996 0.090996 0.084804 0.1692 0.1652 0.2192 c0.1566 0.1034 0.3382 0.1624 0.5256 0.1708 c0.11221 0 0.2242 0.0033984 0.3366 0.002207 c0.8592 -0.0096094 1.7182 -0.021016 2.5774 -0.028808 c0.2984 -0.014004 0.595 -0.054394 0.8864 -0.12059 c0.2402 -0.049004 0.4594 -0.1718 0.62638 -0.3512 c0.16061 -0.1568 0.2966 -0.3368 0.4036 -0.5342 c0.0842 -0.1658 0.1708 -0.3314 0.258 -0.5004 c0.16721 -0.10039 0.3796 -0.085586 0.53122 0.037422 c0.004004 0.055196 0.004004 0.1108 0 0.166 c-0.066602 0.4428 -0.136 0.885 -0.204 1.3274 c-0.0061914 0.12461 -0.068984 0.2396 -0.17059 0.3122 c-0.098008 0.010605 -0.2264 0.03 -0.3554 0.036602 c-0.3538 0.018594 -0.70702 0.0292 -1.0608 0.066796 c-0.3906 0.039804 -0.7842 0.036796 -1.1742 -0.009004 c-0.2034 -0.022794 -0.409 -0.033788 -0.6138 -0.036992 c-1.1018 -0.017598 -2.2036 -0.035 -3.3056 -0.04461 c-0.859 -0.007207 -1.7184 -0.002207 -2.5776 -0.0052148 c-0.149 0 -0.29782 -0.011406 -0.44662 -0.021016 c-0.0742 -0.016406 -0.1318 -0.075 -0.14719 -0.14939 c-0.028204 -0.1266 -0.015996 -0.259 0.035196 -0.3784 c0.050606 -0.057598 0.12201 -0.092208 0.19842 -0.096406 c0.14881 -0.012207 0.2998 -0.013203 0.446 -0.03961 c0.17 -0.027402 0.3144 -0.139 0.384 -0.2964 c0.084004 -0.1676 0.13141 -0.3512 0.1392 -0.5384 c0.013008 -0.7844 0.031016 -1.5686 0.039218 -2.3528 c0.0082032 -0.803 -0.016191 -1.6072 0.017813 -2.4088 c0.023808 -0.56 0.042012 -1.1192 0.038008 -1.679 c-0.0009961 -0.2046 -0.02959 -0.4088 -0.039394 -0.61342 c-0.02 -0.4102 -0.048594 -0.8202 -0.050586 -1.2308 c-0.0035938 -0.7842 0.01041 -1.5686 0.013809 -2.3532 c0.0038086 -0.18641 -0.0031836 -0.373 -0.021192 -0.55862 c-0.015391 -0.2532 -0.20638 -0.4606 -0.45738 -0.4968 c-0.109 -0.025 -0.2194 -0.044394 -0.33 -0.063204 c-0.11039 -0.018594 -0.2188 -0.035196 -0.31978 -0.051192 c-0.104 -0.1432 -0.12301 -0.33122 -0.049804 -0.4922 c0.043398 -0.028808 0.090996 -0.0508 0.141 -0.065196 c0.12961 -0.016992 0.26 -0.025996 0.3906 -0.026602 c0.5418 -0.0016016 1.0836 0.0025976 1.6252 0.0024024 c0.9338 0 1.8676 -0.00080078 2.8014 -0.0025976 c0.037402 0 0.074804 -0.0014063 0.11221 0 c1.2698 0.0056054 2.5398 0.011602 3.8096 0.018008 c0.074394 -0.0014063 0.14879 0.0071876 0.22078 0.02539 c0.053398 0.024004 0.10301 0.055606 0.14721 0.093614 c0.019805 0.087792 0.045196 0.17719 0.059804 0.26838 c0.079004 0.4972 0.15621 0.9948 0.2314 1.4932 c0.00039062 0.036992 -0.004004 0.073984 -0.013203 0.10998 c-0.017793 0.073594 -0.072402 0.13279 -0.14439 0.15639 c-0.13359 0.043204 -0.2794 0.026406 -0.3996 -0.046386 c-0.10881 -0.2314 -0.2162 -0.49 -0.348 -0.7346 c-0.18699 -0.371 -0.50138 -0.66218 -0.8854 -0.8202 c-0.049804 -0.0258 -0.1026 -0.044804 -0.1574 -0.057012 c-0.3112 -0.061406 -0.626 -0.10441 -0.9424 -0.12861 c-0.8412 0 -1.681 0 -2.5214 0.0019922 c-0.12859 -0.012793 -0.2584 0.0056054 -0.3784 0.054004 c-0.062598 0.045996 -0.096192 0.12139 -0.088594 0.19859 c-0.0067968 0.7282 -0.016602 1.4566 -0.017402 2.185 c0 0.99 0.0051954 1.9796 0.0071876 2.9696 c-0.010391 0.2228 0.0016016 0.446 0.0358 0.66638 c0.049394 0.031192 0.10359 0.053594 0.16059 0.065996 c0.673 -0.002207 1.3446 -0.0030078 2.0166 -0.019805 c0.2422 -0.013809 0.4834 -0.041816 0.7222 -0.084218 c0.285 -0.032598 0.5322 -0.2118 0.65202 -0.4724 c0.085196 -0.18641 0.15859 -0.3782 0.2192 -0.5742 z M245.3265 19.2754 c0.12939 0.021796 0.2608 0.02541 0.4164 0.039218 c0.15961 0.12359 0.2224 0.3352 0.15621 0.5258 c-0.073808 0.13721 -0.21942 0.22022 -0.37502 0.21362 c-0.2802 0.0046094 -0.56058 0.003418 -0.84138 0.0030274 c-0.2056 0 -0.411 -0.0053906 -0.6166 -0.0047852 c-0.6762 0.0032032 -1.34 -0.18141 -1.9176 -0.533 c-0.2058 -0.13 -0.3864 -0.2962 -0.53282 -0.49058 c-0.2682 -0.3354 -0.5302 -0.6752 -0.7692 -1.0332 c-0.2902 -0.435 -0.60298 -0.8546 -0.90058 -1.2842 c-0.19141 -0.2762 -0.3746 -0.5578 -0.5588 -0.83898 c-0.1434 -0.2186 -0.2808 -0.4416 -0.4232 -0.6604 c-0.2542 -0.3916 -0.5096 -0.7826 -0.766 -1.1728 c-0.071406 -0.10859 -0.1498 -0.2126 -0.2238 -0.3172 c-0.219 -0.059804 -0.4464 -0.082598 -0.673 -0.067794 c-0.1852 -0.028594 -0.3744 -0.01459 -0.5534 0.040606 c-0.015996 0.0064062 -0.027794 0.023204 -0.050196 0.042012 c-0.019199 0.048398 -0.032598 0.098788 -0.039804 0.15039 c-0.0082032 0.2052 -0.010195 0.41058 -0.011992 0.6162 c-0.010801 1.308 -0.020996 2.6158 -0.0308 3.9232 c-0.013203 0.2294 0.00080078 0.4596 0.041992 0.68558 c0.081192 0.14539 0.2286 0.24138 0.3942 0.25678 c0.11039 0.010391 0.22158 0.010781 0.3138 0.014785 c0.13961 0.1118 0.1866 0.3034 0.1148 0.467 c-0.041796 0.06539 -0.1118 0.1076 -0.1892 0.114 c-0.2228 0.020996 -0.4458 0.044004 -0.6686 0.063204 c-0.074394 0.0067968 -0.149 0.0067968 -0.2234 0 c-0.7254 -0.068204 -1.454 -0.092402 -2.1824 -0.072402 c-0.2242 0.0032032 -0.4484 0.0043946 -0.673 -0.0016016 c-0.057794 -0.012598 -0.11318 -0.034004 -0.16459 -0.063204 c-0.0093946 -0.072402 -0.013789 -0.14561 -0.013184 -0.21862 c0.0075976 -0.11561 0.082988 -0.21542 0.19199 -0.25442 c0.1198 -0.04961 0.2472 -0.081406 0.368 -0.12961 c0.10641 -0.042794 0.18301 -0.1376 0.20282 -0.2506 c0.010996 -0.055 0.017988 -0.11061 0.020996 -0.1666 c0.0258 -0.3348 0.056602 -0.6696 0.073398 -1.005 c0.010391 -0.16779 0.0043946 -0.3362 -0.017813 -0.5028 c-0.030606 -0.241 -0.043808 -0.48378 -0.039414 -0.72658 c0 -1.7376 0.00060546 -3.4752 0.0017969 -5.213 c0 -0.2984 0.026796 -0.5968 0.042188 -0.895 c0.0046094 -0.093204 0.017207 -0.18641 0.018008 -0.2796 c0.007793 -0.8218 0.011602 -1.644 0.020996 -2.4658 c0.0032032 -0.262 -0.037988 -0.5226 -0.12219 -0.7706 c-0.026406 -0.053808 -0.059004 -0.1042 -0.097208 -0.15039 l-0.5794 -0.1682 c-0.126 -0.15619 -0.114 -0.38218 0.027988 -0.52418 c0.384 -0.074004 0.7744 -0.1092 1.1654 -0.105 c1.3798 0.1126 2.7632 0.047794 4.1446 0.088184 c0.56 0.018398 1.1158 0.10439 1.6552 0.2562 c0.4714 0.1234 0.9154 0.334 1.309 0.6208 c0.2242 0.1682 0.448 0.3366 0.66762 0.5098 c0.5274 0.4276 0.8906 1.0248 1.0276 1.6898 c0.047402 0.19961 0.085196 0.4022 0.11379 0.6054 c0.036192 0.2406 0.034394 0.4856 -0.0052148 0.7256 c-0.025196 0.1474 -0.0408 0.296 -0.070996 0.4418 c-0.0208 0.1284 -0.055996 0.2542 -0.1052 0.3748 c-0.18381 0.3896 -0.444 0.73842 -0.7652 1.0256 c-0.1376 0.12619 -0.2918 0.23298 -0.44 0.34658 c-0.3068 0.2478 -0.6726 0.4118 -1.0618 0.4762 c-0.1542 0.011797 -0.3012 0.070996 -0.42058 0.16939 c0.0024024 0.05039 0.014004 0.099786 0.034004 0.14598 c0.7518 1.115 1.5054 2.2288 2.261 3.3414 c0.15699 0.2314 0.3154 0.4642 0.4662 0.6994 c0.302 0.4498 0.62878 0.88282 0.9784 1.2966 c0.1134 0.1502 0.2766 0.2552 0.4602 0.2968 c0.14539 0.031192 0.2886 0.075196 0.435 0.10039 z M237.0073 6.864000000000001 c-0.085196 0.00039062 -0.16557 0.04 -0.21796 0.1074 c-0.014609 0.081992 -0.024414 0.165 -0.029414 0.2482 c-0.007207 0.4672 -0.011816 0.93442 -0.013613 1.4014 c-0.002793 0.7662 0 1.5324 -0.0064062 2.2986 c0.00060546 0.2616 -0.018789 0.5228 -0.057988 0.78138 c-0.045996 0.3148 -0.053788 0.6338 -0.023398 0.9504 c0.014395 0.053398 0.037794 0.104 0.068984 0.14961 c0.061192 0.0038086 0.11559 0.010605 0.16979 0.0098046 c0.2792 -0.021992 0.5594 -0.025196 0.839 -0.0098046 c0.2788 0.025996 0.5596 0.01959 0.83682 -0.019004 c0.902 -0.058594 1.6858 -0.64058 2.003 -1.487 c0.11439 -0.2962 0.19119 -0.60558 0.2286 -0.92098 c0.14881 -0.7816 -0.040996 -1.5896 -0.522 -2.2234 c-0.022598 -0.02961 -0.043788 -0.060606 -0.065196 -0.090996 c-0.318 -0.4436 -0.76262 -0.7808 -1.2756 -0.9674 c-0.4452 -0.14039 -0.9076 -0.2184 -1.3742 -0.2314 c-0.1868 -0.0093946 -0.37378 -0.0083984 -0.5604 0.0032032 z"></path></g>
			</g>
		</svg>
	